<svg width="232" height="161" viewBox="0 0 232 161" fill="none" xmlns="http://www.w3.org/2000/svg">
<g clip-path="url(#clip0_38_90)">
<path d="M219.784 99.2007C217.998 90.2068 225.223 82.2502 228.989 73.8846C235.738 58.8924 230.66 40.071 218.566 28.8998C206.473 17.7286 188.588 13.9211 172.399 17.0579C147.296 21.9213 125.221 41.8745 99.7826 39.2569C88.6238 38.1096 78.4635 32.6523 68.0937 28.39C57.7239 24.1277 46.0128 20.9962 35.4075 24.6396C24.946 28.2332 17.4297 38.1823 15.092 48.9579C12.7544 59.7335 15.0848 71.1289 19.7944 81.105C22.2727 86.3547 25.2941 92.9428 21.5849 97.4158C18.9117 100.641 14.0655 100.828 10.4001 102.866C4.53466 106.129 2.51697 114.035 4.36165 120.471C6.20633 126.908 11.0702 132.048 16.2979 136.252C33.493 150.083 56.5744 156.389 78.4458 153.23L77.2233 150.956C100.042 149.259 122.778 154.012 145.561 156.149C168.342 158.286 192.572 157.48 212.259 145.86C217.545 142.74 222.487 138.788 225.737 133.594C228.985 128.398 230.362 121.817 228.384 116.021C226.338 110.033 221.015 105.405 219.784 99.2007Z" fill="url(#paint0_linear_38_90)"/>
<path d="M120.332 156.448C120.332 156.448 127.711 146.002 145.666 142.456C162.325 139.166 202.299 132.52 216.538 123.547C217.169 123.15 217.897 123.88 217.488 124.501C213.085 131.164 200.744 146.987 178.128 155.782C148.965 167.121 120.332 156.448 120.332 156.448Z" fill="#91B3FA"/>
<path d="M204.661 132.795C203.493 134.122 202.163 135.301 200.775 136.396C200.602 136.534 200.432 136.676 200.257 136.812L199.724 137.207L198.656 137.998L197.557 138.744C197.188 138.989 196.828 139.251 196.445 139.473C193.44 141.351 190.277 142.988 186.993 144.336C186.185 144.707 185.343 144.989 184.514 145.304C183.679 145.605 182.857 145.943 182.004 146.193L179.465 146.996C179.044 147.14 178.612 147.238 178.182 147.352L176.894 147.688L175.605 148.023L174.96 148.188L174.309 148.324L171.702 148.867C171.268 148.955 170.834 149.056 170.398 149.131L169.09 149.357L166.476 149.81C162.983 150.383 159.487 150.932 155.979 151.394C154.227 151.638 152.471 151.854 150.717 152.079L145.448 152.699C141.937 153.108 138.427 153.511 134.937 154.027C134.062 154.144 133.196 154.304 132.326 154.449C131.89 154.517 131.461 154.613 131.03 154.7C130.599 154.79 130.166 154.87 129.737 154.97C128.886 155.188 128.024 155.375 127.19 155.653C126.34 155.884 125.528 156.22 124.705 156.529L124.699 156.531C124.645 156.552 124.585 156.524 124.565 156.471C124.545 156.419 124.57 156.362 124.62 156.339C126.24 155.61 127.933 155.057 129.652 154.612C130.081 154.5 130.515 154.41 130.946 154.308C131.379 154.211 131.81 154.103 132.246 154.024C133.116 153.856 133.984 153.674 134.859 153.535C138.352 152.939 141.863 152.505 145.368 152.039L150.624 151.346C152.375 151.109 154.127 150.883 155.873 150.628C159.371 150.137 162.859 149.592 166.343 149.019L168.952 148.565L170.257 148.339C170.691 148.264 171.12 148.168 171.552 148.083L174.139 147.56L174.786 147.429L175.426 147.268L176.705 146.943C180.126 146.12 183.473 145.011 186.749 143.737C190.033 142.474 193.205 140.921 196.228 139.123C196.614 138.911 196.975 138.659 197.35 138.43L198.469 137.727L199.556 136.979L200.1 136.604C200.278 136.475 200.452 136.341 200.629 136.209C200.979 135.942 201.338 135.686 201.681 135.411L202.704 134.576C203.368 133.999 204.039 133.425 204.642 132.781C204.646 132.776 204.654 132.775 204.66 132.78C204.666 132.782 204.666 132.79 204.661 132.795Z" fill="#DCE5FE"/>
<path d="M227.259 38.7814C222.921 54.5565 193.906 145.333 103.514 133.509C103.514 133.509 107.173 68.8488 225.562 37.0765C226.598 36.7993 227.543 37.7514 227.259 38.7814Z" fill="#BDD0FB"/>
<path d="M214.23 48.88C210.975 52.9803 207.639 57.01 204.266 61.0127C200.893 65.0122 197.472 68.9744 194.006 72.8951C190.539 76.8158 187.027 80.697 183.469 84.5356C179.909 88.3732 176.29 92.1558 172.622 95.8926C165.275 103.353 157.704 110.605 149.749 117.432C145.783 120.858 141.69 124.142 137.475 127.267C133.257 130.385 128.907 133.343 124.333 135.948C124.133 136.062 123.878 135.992 123.763 135.793C123.649 135.593 123.718 135.339 123.918 135.225L123.92 135.224L123.922 135.223C128.466 132.659 132.802 129.734 137.014 126.646C141.222 123.551 145.314 120.294 149.283 116.891C157.245 110.112 164.831 102.899 172.198 95.4763C175.875 91.7581 179.506 87.9921 183.077 84.1722C186.647 80.3502 190.172 76.4856 193.65 72.5805C197.129 68.6754 200.562 64.7298 203.949 60.7448C207.334 56.7587 210.686 52.7415 213.95 48.6609L213.951 48.6599C214.012 48.5841 214.123 48.5716 214.2 48.6319C214.277 48.6942 214.291 48.8042 214.23 48.88Z" fill="#DCE5FE"/>
<path d="M214.537 94.8659C215.068 94.0051 214.086 93.0042 213.212 93.5182C204.767 98.4906 182.214 110.84 164.621 112.029C135.974 113.966 102.857 129.885 99.479 151.264C99.478 151.265 156.645 188.699 214.537 94.8659Z" fill="#BDD0FB"/>
<path d="M203.824 103.238C203.603 103.432 203.391 103.586 203.176 103.755L202.528 104.245L201.221 105.21C200.345 105.847 199.464 106.476 198.581 107.102C196.81 108.349 195.024 109.575 193.227 110.783C189.63 113.195 185.968 115.515 182.273 117.776C178.578 120.041 174.826 122.211 171.03 124.303L169.607 125.09L168.175 125.858C167.218 126.366 166.27 126.893 165.304 127.385L162.417 128.881L159.508 130.334C151.73 134.166 143.746 137.599 135.549 140.452C135.293 140.541 135.039 140.635 134.781 140.72L134.007 140.971L132.459 141.474L130.911 141.976C130.394 142.137 129.871 142.285 129.351 142.439L127.79 142.898C127.268 143.047 126.752 143.215 126.226 143.345L123.076 144.168C118.858 145.188 114.593 146.022 110.287 146.561C110.229 146.569 110.177 146.528 110.17 146.471C110.163 146.415 110.202 146.363 110.257 146.355H110.258C114.541 145.716 118.78 144.834 122.968 143.751L126.099 142.899C126.623 142.765 127.136 142.592 127.654 142.439L129.205 141.966C129.722 141.806 130.241 141.654 130.755 141.489L132.293 140.973L133.831 140.457L134.6 140.2C134.855 140.112 135.108 140.016 135.363 139.924L138.413 138.821C139.427 138.446 140.432 138.044 141.441 137.658C141.944 137.461 142.451 137.271 142.952 137.069L144.452 136.45L145.951 135.831C146.452 135.627 146.951 135.419 147.445 135.2C151.425 133.507 155.336 131.657 159.228 129.77C166.997 125.964 174.57 121.763 181.999 117.33C185.71 115.107 189.378 112.811 193.001 110.448C194.814 109.268 196.616 108.071 198.404 106.853C199.296 106.242 200.186 105.627 201.069 105.003L202.388 104.06L203.043 103.581C203.255 103.42 203.481 103.255 203.672 103.098L203.69 103.083C203.734 103.047 203.799 103.052 203.836 103.097C203.871 103.137 203.866 103.2 203.824 103.238Z" fill="#DCE5FE"/>
<path d="M64.4334 117.832C64.4334 117.832 67.3661 99.5082 59.5351 93.4445C51.7041 87.3797 35.9628 82.1279 38.9383 55.651C40.6798 40.1501 41.2123 33.3419 41.3551 30.3609C41.4103 29.198 42.562 28.4089 43.6709 28.7754C51.5144 31.3701 76.8188 41.1084 79.888 59.6267C83.5273 81.5807 64.4334 117.832 64.4334 117.832Z" fill="#91B3FA"/>
<path d="M48.8348 37.0102C53.0953 42.1748 56.6085 47.8772 59.7486 53.7696C60.5042 55.2575 61.2765 56.7392 61.9633 58.2624L62.4927 59.3972L62.7574 59.9652L63.0055 60.5404L63.9935 62.8434L64.2373 63.4207L64.4635 64.0053L64.9158 65.1734L65.3681 66.3425L65.5943 66.9271L65.8017 67.5179C66.3415 69.1013 66.9283 70.6598 67.39 72.2827C67.5182 72.6835 67.6182 73.0915 67.7276 73.4975C67.8339 73.9045 67.9465 74.3095 68.0476 74.7165L68.33 75.9448L68.4707 76.5595L68.5916 77.1773L68.8344 78.4139L69.0398 79.6568C69.1106 80.071 69.1752 80.4853 69.2253 80.9017L69.3878 82.1497C69.7672 85.4838 69.9267 88.8417 69.8183 92.1892C69.7286 95.5367 69.416 98.8748 68.9043 102.18C68.6406 103.831 68.3248 105.474 67.958 107.106C67.5911 108.74 67.1742 110.35 66.6458 111.961C66.5687 112.196 66.3144 112.325 66.0778 112.248C65.8465 112.174 65.7183 111.93 65.785 111.698L65.7881 111.686C66.0122 110.911 66.2102 110.102 66.3947 109.303C66.5802 108.5 66.7563 107.695 66.9126 106.885C67.2305 105.268 67.4963 103.64 67.712 102.006C68.1508 98.7409 68.4207 95.4515 68.4561 92.1601C68.4999 88.8697 68.3352 85.5803 67.9475 82.32C67.5286 79.0649 66.9272 75.8295 65.9976 72.6845C65.5484 71.1125 64.9846 69.554 64.4645 67.9903L64.2644 67.4047L64.0456 66.8253L63.6089 65.6676L63.1722 64.5088L62.9534 63.9295L62.7168 63.3574C61.4974 60.2881 60.1186 57.2843 58.6762 54.3095C57.2025 51.3503 55.6215 48.442 53.9134 45.6074C52.224 42.7646 50.4095 39.9788 48.4367 37.3321L48.4294 37.3228C48.345 37.2096 48.3689 37.0507 48.4825 36.9666C48.5951 36.8867 48.7493 36.9064 48.8348 37.0102Z" fill="#DCE5FE"/>
<path d="M55.5092 151.887C56.6743 152.781 46.5953 133.069 47.7949 105.564C48.3597 92.6014 51.5457 76.8637 45.6042 69.3463C40.659 63.0895 19.6755 62.154 12.7752 62.0159C11.9133 61.9982 11.4193 62.9877 11.956 63.6605C14.6011 66.9769 20.1403 74.6562 20.6229 81.3627C21.2586 90.2018 28.1548 97.1398 35.0061 100.028C41.8575 102.917 45.5479 105.119 46.7047 117.21C47.8616 129.3 52.2002 149.346 55.5092 151.887Z" fill="#BDD0FB"/>
<path d="M21.4003 67.4899C25.6399 68.5708 29.6503 70.5031 33.1572 73.1456C34.9133 74.4621 36.5058 76.0071 37.8784 77.7318C39.2363 79.4658 40.3765 81.3856 41.1675 83.4487L41.4604 84.2233C41.5563 84.4818 41.6282 84.7487 41.7126 85.0114C41.7907 85.2751 41.8793 85.5399 41.9492 85.8015L42.1586 86.5875C42.4411 87.6341 42.7173 88.6818 42.9841 89.7336C43.5197 91.8341 44.0221 93.944 44.4921 96.06C45.4332 100.293 46.2472 104.553 46.8006 108.86C46.8131 108.956 46.7453 109.044 46.6484 109.057C46.5556 109.068 46.4702 109.006 46.4535 108.914L46.4525 108.909C46.07 106.787 45.6437 104.665 45.1779 102.555C44.7214 100.442 44.2389 98.335 43.7323 96.2345L42.9622 93.0853L42.1555 89.9454C41.8877 88.8988 41.6084 87.8543 41.3238 86.8118L41.1123 86.0289C41.0425 85.7683 40.958 85.5201 40.8809 85.2647C40.8007 85.0124 40.734 84.7549 40.6423 84.5057L40.364 83.7602C39.6167 81.7708 38.5172 79.9278 37.2343 78.2312C36.5735 77.3964 35.8836 76.5813 35.1166 75.8358L34.8341 75.5513L34.5413 75.2783C34.3453 75.0965 34.1536 74.9097 33.9535 74.7321C33.5481 74.3822 33.1468 74.0281 32.7226 73.7C31.051 72.3575 29.2146 71.2185 27.3074 70.2196C25.3992 69.2249 23.393 68.3839 21.3325 67.764L21.3242 67.7609C21.2492 67.738 21.2075 67.6602 21.2304 67.5854C21.2523 67.5138 21.3273 67.4722 21.4003 67.4899Z" fill="#DCE5FE"/>
<path d="M53.8044 153.108C54.5881 153.519 49.3907 144.608 48.9926 136.756C48.5934 128.905 46.8155 115.504 40.0204 107.488C33.2253 99.4727 25.782 98.7407 16.4043 106.029C8.58998 112.102 3.71566 115.166 0.856926 115.736C0.149279 115.877 -0.212361 116.673 0.132604 117.305C1.96582 120.669 7.14967 128.396 15.854 127.852C26.9565 127.158 40.4122 119.967 44.5133 125.966C48.6143 131.965 48.088 135.321 48.2141 138.164C48.3391 141.006 48.6195 150.384 53.8044 153.108Z" fill="#91B3FA"/>
<path d="M19.589 115.693C20.2039 115.114 20.8564 114.591 21.5286 114.086C22.2008 113.583 22.8928 113.105 23.6129 112.668C25.048 111.788 26.579 111.037 28.208 110.52C29.0219 110.265 29.8609 110.069 30.7176 109.96C31.5742 109.857 32.4497 109.842 33.3178 109.95C33.5336 109.986 33.7524 110.005 33.9661 110.054C34.1787 110.104 34.3975 110.145 34.6039 110.204L35.8253 110.581L37.0207 111.044L38.1786 111.598C39.6971 112.396 41.0707 113.471 42.214 114.739C43.3666 116.004 44.2702 117.461 45.0133 118.972L45.2926 119.54C45.3885 119.728 45.4583 119.927 45.5417 120.12C45.7001 120.509 45.87 120.894 46.018 121.287L46.4307 122.475C46.5766 122.869 46.6704 123.278 46.7892 123.679C47.2571 125.286 47.5792 126.926 47.8606 128.566C47.8751 128.651 47.8178 128.732 47.7324 128.746C47.6511 128.759 47.5729 128.707 47.5542 128.629L47.5531 128.623C47.1665 127.013 46.7923 125.4 46.2566 123.839C46.0138 123.05 45.7053 122.288 45.4187 121.517C45.2645 121.137 45.0873 120.766 44.9237 120.391C44.8372 120.205 44.7642 120.013 44.6662 119.833L44.3807 119.29C43.6241 117.842 42.7059 116.482 41.6053 115.293C40.5048 114.105 39.1989 113.123 37.7669 112.373L36.6695 111.855L35.5325 111.421L34.3652 111.067C34.1714 111.012 33.9807 110.975 33.7879 110.928C33.5961 110.884 33.3981 110.865 33.2032 110.832C32.4184 110.729 31.6149 110.736 30.8187 110.827C30.0203 110.913 29.2272 111.08 28.4477 111.308C26.8875 111.763 25.3836 112.44 23.9412 113.228C22.4999 114.019 21.1065 114.926 19.8037 115.934L19.7996 115.937C19.7287 115.992 19.6266 115.98 19.5713 115.908C19.5213 115.844 19.5296 115.749 19.589 115.693Z" fill="#DCE5FE"/>
<path d="M98.881 120.942C98.98 120.545 98.4776 120.28 98.2046 120.585C95.5637 123.536 88.3965 131.056 81.763 133.67C70.9627 137.925 60.1636 148.115 61.4996 156.768C61.4996 156.768 88.1495 164.193 98.881 120.942Z" fill="#BDD0FB"/>
<path d="M95.842 125.507C95.7753 125.623 95.7159 125.704 95.6544 125.798L95.4689 126.07L95.0916 126.609C94.8373 126.966 94.5778 127.318 94.3173 127.671C93.7951 128.374 93.2636 129.071 92.7269 129.763C91.6482 131.144 90.5289 132.493 89.3908 133.826C88.2559 135.162 87.0793 136.463 85.8745 137.738C84.6697 139.012 83.4451 140.269 82.1799 141.486C79.6537 143.923 76.9846 146.217 74.1655 148.318C72.7418 149.35 71.2911 150.345 69.7851 151.253C68.2708 152.147 66.719 152.981 65.1099 153.689C65.0567 153.712 64.9952 153.688 64.9723 153.636C64.9494 153.585 64.9723 153.526 65.0213 153.501C68.1375 151.916 71.0629 149.996 73.8278 147.872C75.215 146.815 76.5625 145.707 77.8819 144.567C79.2024 143.427 80.4718 142.23 81.7422 141.033C84.2706 138.627 86.6624 136.08 88.9959 133.483C90.1589 132.181 91.2949 130.854 92.4101 129.509C92.9697 128.838 93.5221 128.162 94.0672 127.479L94.8759 126.449L95.2761 125.931L95.4731 125.67L95.6544 125.419L95.67 125.397C95.7034 125.352 95.768 125.341 95.8139 125.374C95.8566 125.404 95.8681 125.462 95.842 125.507Z" fill="#DCE5FE"/>
<path d="M82.1027 113.205C82.0923 112.868 81.6358 112.769 81.4878 113.072C80.0548 115.991 76.0569 123.531 71.3879 127.067C63.7862 132.824 57.5091 143.28 60.4949 149.834C60.4949 149.833 83.246 149.816 82.1027 113.205Z" fill="#91B3FA"/>
<path d="M80.7323 117.493C80.7042 117.603 80.6771 117.679 80.65 117.768L80.5645 118.024L80.3884 118.535C80.2685 118.875 80.1414 119.212 80.0163 119.549C79.762 120.222 79.4994 120.892 79.2305 121.56C78.6886 122.894 78.105 124.211 77.5047 125.52C76.9075 126.83 76.2665 128.122 75.5974 129.398C74.9284 130.674 74.2395 131.942 73.5099 133.186C72.054 135.676 70.448 138.082 68.6794 140.369C67.7789 141.499 66.8483 142.606 65.8551 143.657C64.8504 144.696 63.803 145.697 62.6805 146.608C62.6357 146.644 62.5701 146.638 62.5336 146.593C62.4992 146.551 62.5044 146.489 62.544 146.451C64.644 144.495 66.5252 142.326 68.2333 140.03C69.0931 138.886 69.9113 137.712 70.7002 136.518C71.4902 135.324 72.226 134.095 72.9649 132.869C74.4323 130.408 75.7548 127.864 77.0305 125.297C77.6641 124.01 78.2696 122.71 78.8564 121.402C79.1524 120.749 79.441 120.093 79.7224 119.432L80.1372 118.44L80.3405 117.942L80.4395 117.693L80.528 117.457L80.5374 117.431C80.5572 117.378 80.6166 117.351 80.6698 117.371C80.7177 117.391 80.7448 117.443 80.7323 117.493Z" fill="#DCE5FE"/>
<path d="M64.0886 145.151C64.0875 145.151 64.0865 145.151 64.0854 145.151C63.8749 145.15 63.6654 145.147 63.4549 145.144C63.2246 145.14 63.0401 144.951 63.0443 144.721C63.0485 144.492 63.235 144.303 63.4685 144.312C63.6759 144.315 63.8832 144.317 64.0917 144.319C64.322 144.321 64.5086 144.508 64.5065 144.739C64.5044 144.967 64.3178 145.151 64.0886 145.151ZM65.5508 145.147C65.3225 145.147 65.136 144.964 65.1328 144.736C65.1297 144.506 65.3142 144.317 65.5455 144.314C65.7529 144.311 65.9614 144.308 66.1688 144.304C66.4012 144.301 66.5909 144.481 66.595 144.711C66.6002 144.94 66.4168 145.131 66.1865 145.136C65.976 145.14 65.7665 145.144 65.556 145.146C65.5539 145.147 65.5528 145.147 65.5508 145.147ZM62 145.104C61.9948 145.104 61.9896 145.104 61.9844 145.104C61.7739 145.096 61.5644 145.088 61.3539 145.077C61.1235 145.066 60.9453 144.871 60.9568 144.641C60.9682 144.412 61.1631 144.235 61.3945 144.246C61.6019 144.255 61.8093 144.264 62.0167 144.273C62.247 144.281 62.4273 144.475 62.419 144.705C62.4085 144.929 62.223 145.104 62 145.104ZM67.6393 145.093C67.4163 145.093 67.2308 144.917 67.2224 144.693C67.2131 144.464 67.3933 144.27 67.6237 144.261C67.8311 144.253 68.0395 144.245 68.2469 144.234C68.4804 144.222 68.6732 144.401 68.6836 144.631C68.694 144.86 68.5158 145.056 68.2855 145.066C68.076 145.075 67.8655 145.085 67.656 145.093C67.6497 145.092 67.6445 145.093 67.6393 145.093ZM59.9135 144.991C59.9031 144.991 59.8937 144.991 59.8833 144.99C59.6738 144.976 59.4633 144.959 59.2538 144.941C59.0235 144.923 58.8526 144.721 58.8714 144.493C58.8901 144.263 59.0944 144.092 59.3216 144.112C59.5279 144.128 59.7353 144.145 59.9417 144.16C60.172 144.176 60.345 144.375 60.3283 144.605C60.3148 144.824 60.1314 144.991 59.9135 144.991ZM69.7258 144.986C69.5069 144.986 69.3235 144.817 69.3089 144.596C69.2943 144.366 69.4694 144.169 69.6997 144.154C69.9071 144.142 70.1145 144.127 70.3219 144.113C70.5522 144.096 70.7523 144.27 70.768 144.499C70.7836 144.728 70.6106 144.928 70.3803 144.943C70.1708 144.958 69.9613 144.971 69.7518 144.985C69.7435 144.986 69.7341 144.986 69.7258 144.986ZM71.8091 144.833C71.5944 144.833 71.412 144.669 71.3933 144.452C71.3735 144.223 71.5444 144.021 71.7747 144.003C71.9821 143.985 72.1895 143.967 72.3969 143.949C72.6262 143.927 72.8294 144.097 72.8503 144.327C72.8711 144.556 72.7012 144.758 72.4709 144.778C72.2625 144.797 72.053 144.815 71.8445 144.832C71.8331 144.833 71.8206 144.833 71.8091 144.833ZM57.8333 144.805C57.8187 144.805 57.8031 144.804 57.7875 144.803C57.578 144.78 57.3685 144.757 57.1601 144.732C56.9308 144.704 56.7672 144.497 56.7953 144.269C56.8224 144.04 57.0319 143.877 57.2601 143.905C57.4654 143.93 57.6718 143.953 57.8781 143.976C58.1074 144.001 58.2731 144.206 58.2481 144.435C58.2252 144.646 58.0439 144.805 57.8333 144.805ZM73.8893 144.639C73.6778 144.639 73.4964 144.479 73.4745 144.265C73.4506 144.037 73.6173 143.832 73.8476 143.809C74.055 143.788 74.2614 143.766 74.4688 143.743C74.697 143.719 74.9044 143.883 74.9294 144.112C74.9544 144.34 74.7887 144.546 74.5594 144.571C74.351 144.594 74.1426 144.615 73.9341 144.636C73.9185 144.638 73.9039 144.639 73.8893 144.639ZM55.7615 144.54C55.7406 144.54 55.7208 144.538 55.7 144.535C55.4915 144.504 55.2831 144.472 55.0757 144.439C54.8475 144.402 54.6932 144.189 54.7297 143.961C54.7662 143.734 54.9809 143.58 55.2091 143.616C55.4134 143.65 55.6187 143.681 55.8229 143.711C56.0512 143.745 56.2086 143.957 56.1752 144.184C56.1429 144.391 55.9647 144.54 55.7615 144.54ZM75.9664 144.409C75.758 144.409 75.5777 144.253 75.5516 144.042C75.5245 143.814 75.6881 143.607 75.9174 143.579C76.1248 143.554 76.3312 143.529 76.5375 143.503C76.7668 143.474 76.9752 143.637 77.0034 143.866C77.0315 144.094 76.8689 144.302 76.6397 144.33C76.4312 144.356 76.2238 144.381 76.0154 144.406C75.9998 144.408 75.982 144.409 75.9664 144.409ZM53.7021 144.191C53.676 144.191 53.6489 144.189 53.6229 144.183C53.4155 144.144 53.2091 144.102 53.0028 144.06C52.7766 144.013 52.6318 143.793 52.6776 143.568C52.7245 143.342 52.9455 143.198 53.1716 143.244C53.3748 143.285 53.5781 143.326 53.7813 143.364C54.0085 143.408 54.1565 143.626 54.1127 143.851C54.0731 144.053 53.898 144.191 53.7021 144.191ZM78.0383 144.146C77.8319 144.146 77.6527 143.994 77.6245 143.785C77.5933 143.557 77.7538 143.348 77.983 143.316C78.1894 143.288 78.3958 143.26 78.6021 143.232C78.8303 143.2 79.0419 143.36 79.0732 143.587C79.1044 143.815 78.945 144.026 78.7167 144.057C78.5094 144.086 78.302 144.114 78.0946 144.142C78.0758 144.145 78.057 144.146 78.0383 144.146ZM80.107 143.853C79.9038 143.853 79.7256 143.705 79.6943 143.498C79.6599 143.271 79.8173 143.059 80.0455 143.025C80.2519 142.993 80.4572 142.962 80.6636 142.931C80.8918 142.896 81.1054 143.052 81.1398 143.279C81.1753 143.506 81.019 143.719 80.7907 143.754C80.5833 143.786 80.3759 143.817 80.1696 143.848C80.1487 143.852 80.1279 143.853 80.107 143.853ZM51.6594 143.751C51.6271 143.751 51.5948 143.747 51.5614 143.74C51.3561 143.691 51.1518 143.64 50.9476 143.589C50.7235 143.532 50.5891 143.306 50.6453 143.084C50.7027 142.861 50.9288 142.726 51.1539 142.783C51.3551 142.834 51.5552 142.883 51.7574 142.931C51.9814 142.984 52.12 143.209 52.0669 143.433C52.02 143.624 51.848 143.751 51.6594 143.751ZM82.1716 143.53C81.9705 143.53 81.7933 143.386 81.7599 143.181C81.7224 142.955 81.8767 142.74 82.1039 142.703C82.3092 142.668 82.5155 142.635 82.7208 142.6C82.9491 142.562 83.1638 142.714 83.2023 142.942C83.2409 143.168 83.0877 143.383 82.8595 143.421C82.6531 143.456 82.4467 143.491 82.2394 143.524C82.2175 143.528 82.1945 143.53 82.1716 143.53ZM49.6396 143.219C49.6011 143.219 49.5615 143.214 49.5229 143.202C49.3207 143.143 49.1185 143.084 48.9163 143.022C48.6954 142.954 48.5714 142.721 48.6391 142.501C48.7069 142.281 48.9393 142.158 49.1613 142.225C49.3593 142.285 49.5573 142.345 49.7564 142.403C49.9783 142.467 50.1055 142.698 50.0409 142.919C49.9877 143.1 49.821 143.219 49.6396 143.219ZM84.231 143.177C84.033 143.177 83.8568 143.036 83.8204 142.835C83.7797 142.608 83.9308 142.392 84.158 142.351C84.3633 142.314 84.5686 142.277 84.7729 142.24C84.9991 142.198 85.2179 142.348 85.2596 142.574C85.3013 142.8 85.1512 143.017 84.924 143.059C84.7177 143.096 84.5124 143.134 84.306 143.171C84.28 143.175 84.255 143.177 84.231 143.177ZM86.2841 142.794C86.0882 142.794 85.9131 142.656 85.8745 142.458C85.8307 142.232 85.9777 142.013 86.2049 141.97C86.4092 141.93 86.6134 141.89 86.8187 141.849C87.0449 141.804 87.2648 141.951 87.3107 142.176C87.3555 142.402 87.2085 142.621 86.9824 142.666C86.7771 142.707 86.5717 142.747 86.3654 142.788C86.3372 142.792 86.3112 142.794 86.2841 142.794ZM47.649 142.586C47.6032 142.586 47.5563 142.579 47.5115 142.563C47.3124 142.493 47.1123 142.421 46.9143 142.349C46.6975 142.269 46.5871 142.03 46.6673 141.814C46.7475 141.598 46.9873 141.488 47.204 141.567C47.3979 141.638 47.5928 141.708 47.7887 141.776C48.0065 141.851 48.1212 142.089 48.0451 142.306C47.9825 142.478 47.821 142.586 47.649 142.586ZM88.332 142.382C88.1382 142.382 87.9652 142.247 87.9235 142.051C87.8755 141.825 88.0204 141.605 88.2465 141.557C88.4508 141.515 88.654 141.471 88.8583 141.429C89.0845 141.381 89.3064 141.524 89.3544 141.749C89.4023 141.974 89.2585 142.195 89.0334 142.243C88.8281 142.286 88.6238 142.33 88.4185 142.373C88.3893 142.379 88.3612 142.382 88.332 142.382ZM90.3737 141.939C90.1829 141.939 90.0099 141.807 89.9662 141.614C89.9151 141.389 90.0568 141.166 90.2819 141.116C90.4852 141.071 90.6884 141.025 90.8916 140.978C91.1157 140.926 91.3408 141.066 91.3929 141.291C91.445 141.515 91.3043 141.738 91.0792 141.79C90.8749 141.837 90.6707 141.884 90.4664 141.929C90.4351 141.935 90.4039 141.939 90.3737 141.939ZM45.696 141.844C45.6428 141.844 45.5886 141.834 45.5365 141.812C45.3416 141.731 45.1467 141.649 44.9529 141.566C44.7413 141.474 44.6434 141.229 44.7351 141.019C44.8268 140.808 45.0728 140.71 45.2843 140.802C45.474 140.884 45.6647 140.964 45.8554 141.042C46.0691 141.131 46.1702 141.374 46.0816 141.587C46.0149 141.748 45.8596 141.844 45.696 141.844ZM92.409 141.467C92.2204 141.467 92.0495 141.339 92.0026 141.148C91.9484 140.925 92.087 140.7 92.3111 140.646C92.5133 140.597 92.7165 140.548 92.9187 140.498C93.1428 140.443 93.3689 140.58 93.4241 140.804C93.4794 141.027 93.3418 141.252 93.1177 141.307C92.9145 141.357 92.7102 141.406 92.507 141.455C92.4747 141.463 92.4414 141.467 92.409 141.467ZM43.7877 140.995C43.7273 140.995 43.6658 140.981 43.6074 140.953C43.4167 140.862 43.227 140.769 43.0384 140.674C42.832 140.571 42.7487 140.321 42.8529 140.115C42.9561 139.91 43.2083 139.827 43.4136 139.93C43.598 140.023 43.7836 140.114 43.9701 140.202C44.1785 140.302 44.2661 140.55 44.166 140.758C44.092 140.908 43.943 140.995 43.7877 140.995ZM94.4372 140.966C94.2506 140.966 94.0807 140.841 94.0328 140.652C93.9755 140.43 94.1099 140.203 94.334 140.145C94.5362 140.093 94.7373 140.042 94.9395 139.99C95.1625 139.932 95.3908 140.065 95.4491 140.288C95.5075 140.51 95.373 140.737 95.15 140.795C94.9468 140.848 94.7446 140.9 94.5414 140.952C94.5059 140.962 94.4715 140.966 94.4372 140.966ZM96.4569 140.435C96.2725 140.435 96.1047 140.313 96.0536 140.128C95.9931 139.906 96.1245 139.677 96.3475 139.617C96.5486 139.563 96.7498 139.508 96.9499 139.453C97.1729 139.392 97.4022 139.521 97.4637 139.744C97.5252 139.965 97.3949 140.194 97.1719 140.255C96.9697 140.312 96.7675 140.367 96.5653 140.421C96.5299 140.431 96.4934 140.435 96.4569 140.435ZM41.9316 140.038C41.8628 140.038 41.794 140.022 41.7294 139.987C41.5449 139.885 41.3605 139.781 41.1781 139.676C40.978 139.561 40.9092 139.306 41.0249 139.107C41.1406 138.908 41.3959 138.839 41.596 138.954C41.7753 139.057 41.9545 139.159 42.1348 139.259C42.337 139.37 42.41 139.623 42.2974 139.825C42.2203 139.962 42.0785 140.038 41.9316 140.038ZM98.4694 139.875C98.288 139.875 98.1203 139.756 98.0681 139.574C98.0046 139.353 98.1328 139.123 98.3547 139.059C98.5548 139.002 98.755 138.944 98.955 138.886C99.176 138.822 99.4084 138.948 99.473 139.169C99.5376 139.391 99.4105 139.621 99.1885 139.685C98.9874 139.744 98.7862 139.802 98.5851 139.86C98.5465 139.87 98.5079 139.875 98.4694 139.875ZM100.474 139.287C100.294 139.287 100.129 139.17 100.073 138.991C100.007 138.771 100.132 138.538 100.353 138.472C100.552 138.411 100.751 138.351 100.951 138.29C101.172 138.222 101.405 138.346 101.473 138.565C101.541 138.785 101.417 139.018 101.197 139.085C100.997 139.147 100.796 139.208 100.595 139.268C100.555 139.282 100.514 139.287 100.474 139.287ZM40.1348 138.977C40.0588 138.977 39.9806 138.957 39.9118 138.913C39.7336 138.8 39.5554 138.686 39.3793 138.57C39.1865 138.444 39.1333 138.185 39.2605 137.993C39.3876 137.801 39.6461 137.748 39.8399 137.875C40.0119 137.988 40.1849 138.1 40.36 138.21C40.5549 138.334 40.6132 138.59 40.4892 138.784C40.4079 138.909 40.2724 138.977 40.1348 138.977ZM102.469 138.67C102.292 138.67 102.127 138.557 102.071 138.38C102.001 138.161 102.122 137.928 102.342 137.857C102.54 137.794 102.739 137.73 102.937 137.667C103.157 137.596 103.393 137.716 103.464 137.935C103.534 138.154 103.414 138.389 103.195 138.459C102.996 138.524 102.796 138.587 102.596 138.65C102.554 138.664 102.511 138.67 102.469 138.67ZM104.456 138.024C104.281 138.024 104.118 137.914 104.06 137.74C103.987 137.522 104.105 137.286 104.323 137.213C104.521 137.148 104.718 137.081 104.915 137.015C105.134 136.941 105.371 137.057 105.446 137.276C105.52 137.494 105.403 137.729 105.184 137.804C104.986 137.871 104.787 137.938 104.588 138.004C104.544 138.017 104.5 138.024 104.456 138.024ZM38.4059 137.809C38.3214 137.809 38.2349 137.783 38.1609 137.73C37.989 137.607 37.8191 137.481 37.6503 137.355C37.4658 137.217 37.4293 136.956 37.5679 136.772C37.7065 136.588 37.9692 136.552 38.1526 136.69C38.3173 136.813 38.483 136.935 38.6497 137.055C38.8363 137.19 38.879 137.45 38.7435 137.637C38.6633 137.75 38.5351 137.809 38.4059 137.809ZM106.433 137.35C106.26 137.35 106.098 137.243 106.039 137.071C105.963 136.854 106.077 136.616 106.295 136.54C106.492 136.472 106.688 136.402 106.884 136.333C107.102 136.256 107.341 136.369 107.418 136.586C107.495 136.803 107.381 137.041 107.164 137.118C106.966 137.187 106.769 137.257 106.571 137.326C106.524 137.342 106.479 137.35 106.433 137.35ZM108.399 136.647C108.23 136.647 108.069 136.542 108.008 136.374C107.928 136.158 108.04 135.919 108.256 135.84C108.451 135.768 108.646 135.696 108.841 135.624C109.059 135.544 109.298 135.654 109.379 135.869C109.459 136.085 109.349 136.323 109.133 136.404C108.937 136.477 108.74 136.55 108.543 136.621C108.495 136.639 108.447 136.647 108.399 136.647ZM36.754 136.536C36.6602 136.536 36.5653 136.505 36.4882 136.441C36.3246 136.307 36.1631 136.171 36.0026 136.033C35.8275 135.883 35.8077 135.619 35.9588 135.445C36.1089 135.271 36.3736 135.251 36.5487 135.401C36.705 135.535 36.8624 135.667 37.0208 135.798C37.199 135.944 37.224 136.207 37.0771 136.384C36.9937 136.485 36.8738 136.536 36.754 136.536ZM110.356 135.916C110.188 135.916 110.029 135.815 109.965 135.648C109.882 135.434 109.99 135.193 110.205 135.111C110.4 135.036 110.594 134.961 110.789 134.886C111.005 134.803 111.247 134.91 111.33 135.124C111.413 135.339 111.307 135.58 111.091 135.663C110.896 135.739 110.701 135.814 110.505 135.888C110.456 135.908 110.406 135.916 110.356 135.916ZM35.1897 135.158C35.0865 135.158 34.9833 135.121 34.9031 135.044C34.7488 134.899 34.5966 134.752 34.4466 134.604C34.2819 134.442 34.2809 134.179 34.4424 134.015C34.605 133.851 34.8687 133.85 35.0333 134.011C35.1792 134.155 35.3272 134.298 35.4773 134.439C35.6451 134.597 35.6524 134.86 35.494 135.028C35.4116 135.115 35.3012 135.158 35.1897 135.158ZM112.301 135.157C112.136 135.157 111.978 135.059 111.914 134.896C111.828 134.682 111.932 134.44 112.146 134.355C112.34 134.278 112.533 134.2 112.726 134.122C112.939 134.036 113.183 134.139 113.27 134.352C113.356 134.564 113.253 134.807 113.039 134.894C112.845 134.973 112.65 135.05 112.456 135.127C112.406 135.148 112.353 135.157 112.301 135.157ZM114.236 134.371C114.072 134.371 113.917 134.275 113.85 134.115C113.761 133.903 113.861 133.659 114.075 133.571C114.268 133.491 114.46 133.411 114.651 133.33C114.864 133.241 115.109 133.34 115.199 133.552C115.288 133.764 115.188 134.008 114.976 134.097C114.783 134.178 114.589 134.259 114.396 134.339C114.344 134.361 114.29 134.371 114.236 134.371ZM33.7254 133.676C33.6128 133.676 33.4992 133.63 33.4169 133.541C33.2741 133.385 33.1324 133.228 32.9927 133.069C32.8406 132.896 32.8583 132.633 33.0313 132.482C33.2053 132.33 33.469 132.348 33.6212 132.52C33.7566 132.674 33.8942 132.826 34.0328 132.978C34.1892 133.147 34.1777 133.411 34.0078 133.567C33.9276 133.639 33.8265 133.676 33.7254 133.676ZM116.159 133.557C115.997 133.557 115.844 133.464 115.775 133.307C115.683 133.096 115.78 132.851 115.992 132.76C116.184 132.677 116.374 132.594 116.565 132.511C116.777 132.418 117.022 132.515 117.115 132.725C117.208 132.935 117.111 133.18 116.901 133.273C116.709 133.357 116.517 133.44 116.324 133.523C116.271 133.546 116.215 133.557 116.159 133.557ZM118.07 132.715C117.91 132.715 117.758 132.624 117.688 132.47C117.594 132.26 117.687 132.014 117.898 131.92C118.088 131.835 118.277 131.749 118.467 131.662C118.677 131.567 118.924 131.659 119.02 131.869C119.116 132.079 119.023 132.325 118.813 132.42C118.622 132.507 118.432 132.593 118.241 132.679C118.186 132.703 118.127 132.715 118.07 132.715ZM32.3726 132.091C32.2486 132.091 32.1267 132.037 32.0443 131.932C31.913 131.766 31.7838 131.599 31.6566 131.43C31.518 131.246 31.5555 130.985 31.74 130.847C31.9245 130.709 32.1871 130.747 32.3247 130.93C32.4477 131.094 32.5738 131.256 32.7009 131.417C32.8437 131.598 32.8124 131.86 32.6311 132.002C32.554 132.062 32.4633 132.091 32.3726 132.091ZM119.969 131.846C119.811 131.846 119.661 131.758 119.59 131.606C119.492 131.398 119.582 131.151 119.792 131.053C119.98 130.965 120.169 130.876 120.357 130.787C120.566 130.688 120.815 130.778 120.914 130.985C121.013 131.193 120.923 131.441 120.715 131.54C120.525 131.629 120.337 131.718 120.146 131.807C120.088 131.833 120.028 131.846 119.969 131.846ZM121.854 130.949C121.699 130.949 121.55 130.863 121.478 130.714C121.377 130.508 121.463 130.259 121.671 130.158C121.858 130.068 122.045 129.976 122.232 129.885C122.44 129.783 122.69 129.868 122.792 130.075C122.894 130.281 122.809 130.531 122.601 130.632C122.413 130.725 122.225 130.816 122.036 130.908C121.978 130.936 121.916 130.949 121.854 130.949ZM31.1449 130.408C31.0094 130.408 30.8771 130.343 30.7968 130.223C30.6791 130.048 30.5634 129.87 30.4498 129.692C30.3268 129.498 30.3841 129.24 30.579 129.117C30.7739 128.995 31.0324 129.052 31.1553 129.246C31.2658 129.42 31.3773 129.591 31.492 129.761C31.6202 129.952 31.568 130.211 31.3763 130.339C31.3054 130.385 31.2252 130.408 31.1449 130.408ZM123.727 130.026C123.574 130.026 123.427 129.942 123.354 129.797C123.25 129.591 123.333 129.341 123.539 129.237C123.726 129.143 123.911 129.05 124.097 128.956C124.302 128.851 124.554 128.933 124.659 129.137C124.764 129.342 124.682 129.593 124.476 129.697C124.29 129.791 124.102 129.886 123.916 129.98C123.854 130.011 123.789 130.026 123.727 130.026ZM125.585 129.075C125.435 129.075 125.289 128.994 125.214 128.852C125.107 128.648 125.186 128.396 125.391 128.29C125.576 128.193 125.76 128.097 125.945 128C126.148 127.892 126.401 127.97 126.51 128.174C126.617 128.377 126.54 128.628 126.335 128.736C126.15 128.834 125.964 128.931 125.779 129.028C125.716 129.059 125.651 129.075 125.585 129.075ZM30.0569 128.632C29.9099 128.632 29.7671 128.555 29.6911 128.417C29.5879 128.232 29.4868 128.045 29.3888 127.857C29.2825 127.653 29.3617 127.402 29.566 127.295C29.7713 127.188 30.0235 127.268 30.1298 127.472C30.2247 127.653 30.3226 127.833 30.4227 128.013C30.5342 128.214 30.4612 128.468 30.2601 128.579C30.1955 128.615 30.1256 128.632 30.0569 128.632ZM127.43 128.098C127.282 128.098 127.138 128.019 127.062 127.88C126.952 127.677 127.028 127.425 127.231 127.315C127.414 127.216 127.597 127.117 127.78 127.017C127.982 126.907 128.236 126.981 128.347 127.183C128.457 127.385 128.383 127.638 128.18 127.748C127.997 127.848 127.812 127.947 127.628 128.047C127.565 128.081 127.498 128.098 127.43 128.098ZM129.26 127.093C129.114 127.093 128.971 127.016 128.895 126.88C128.783 126.68 128.854 126.425 129.056 126.313C129.237 126.211 129.419 126.11 129.6 126.008C129.801 125.895 130.055 125.964 130.17 126.165C130.283 126.365 130.212 126.618 130.012 126.733C129.83 126.835 129.648 126.938 129.464 127.04C129.4 127.076 129.33 127.093 129.26 127.093ZM29.122 126.771C28.9626 126.771 28.8104 126.68 28.7406 126.525C28.6541 126.332 28.5686 126.137 28.4873 125.94C28.3987 125.728 28.4988 125.484 28.7124 125.396C28.9261 125.308 29.17 125.408 29.2585 125.62C29.3378 125.809 29.419 125.997 29.5035 126.184C29.5983 126.394 29.5035 126.64 29.2929 126.735C29.2367 126.758 29.1783 126.771 29.122 126.771ZM131.075 126.063C130.932 126.063 130.791 125.988 130.714 125.855C130.598 125.656 130.666 125.401 130.866 125.286C131.046 125.182 131.226 125.077 131.406 124.973C131.605 124.856 131.861 124.923 131.978 125.121C132.095 125.319 132.028 125.575 131.829 125.691C131.649 125.797 131.467 125.902 131.286 126.007C131.219 126.044 131.146 126.063 131.075 126.063ZM132.875 125.006C132.733 125.006 132.595 124.933 132.517 124.803C132.398 124.606 132.463 124.351 132.661 124.232C132.84 124.125 133.018 124.018 133.196 123.91C133.393 123.791 133.651 123.854 133.77 124.052C133.89 124.248 133.827 124.504 133.629 124.624C133.449 124.732 133.27 124.84 133.09 124.947C133.022 124.986 132.948 125.006 132.875 125.006ZM134.659 123.923C134.52 123.923 134.383 123.853 134.304 123.726C134.183 123.53 134.244 123.274 134.44 123.152C134.617 123.043 134.793 122.933 134.97 122.823C135.166 122.702 135.423 122.76 135.546 122.955C135.668 123.15 135.61 123.407 135.414 123.529C135.236 123.64 135.059 123.75 134.88 123.861C134.811 123.902 134.734 123.923 134.659 123.923ZM136.428 122.813C136.291 122.813 136.155 122.745 136.076 122.621C135.952 122.428 136.008 122.17 136.203 122.046C136.378 121.933 136.554 121.821 136.729 121.709C136.923 121.585 137.182 121.64 137.307 121.833C137.432 122.026 137.376 122.283 137.183 122.408C137.006 122.521 136.83 122.634 136.654 122.746C136.582 122.792 136.505 122.813 136.428 122.813ZM138.179 121.678C138.043 121.678 137.91 121.613 137.83 121.491C137.703 121.299 137.756 121.04 137.949 120.914C138.123 120.8 138.296 120.684 138.47 120.569C138.661 120.441 138.921 120.493 139.049 120.684C139.177 120.875 139.125 121.134 138.933 121.262C138.759 121.377 138.584 121.493 138.41 121.608C138.338 121.656 138.258 121.678 138.179 121.678ZM139.914 120.519C139.781 120.519 139.648 120.456 139.568 120.337C139.439 120.147 139.488 119.887 139.679 119.758L140.196 119.407C140.386 119.277 140.646 119.326 140.776 119.516C140.906 119.706 140.857 119.965 140.667 120.095L140.148 120.447C140.077 120.496 139.995 120.519 139.914 120.519ZM141.636 119.34C141.504 119.34 141.373 119.277 141.292 119.161C141.161 118.972 141.207 118.713 141.396 118.582L141.909 118.226C142.099 118.094 142.359 118.139 142.49 118.328C142.623 118.516 142.577 118.776 142.387 118.908L141.872 119.266C141.802 119.316 141.718 119.34 141.636 119.34ZM143.346 118.144C143.215 118.144 143.087 118.082 143.004 117.968C142.871 117.78 142.916 117.521 143.103 117.388L143.614 117.026C143.802 116.892 144.063 116.937 144.197 117.124C144.33 117.311 144.286 117.571 144.099 117.704L143.587 118.067C143.514 118.12 143.43 118.144 143.346 118.144ZM145.047 116.935C144.917 116.935 144.789 116.875 144.707 116.762C144.573 116.575 144.616 116.315 144.803 116.18L145.312 115.816C145.499 115.682 145.76 115.723 145.895 115.91C146.03 116.097 145.988 116.357 145.8 116.492L145.291 116.856C145.217 116.91 145.131 116.935 145.047 116.935ZM146.742 115.716C146.612 115.716 146.485 115.657 146.403 115.544C146.267 115.358 146.309 115.097 146.496 114.962L147.002 114.596C147.189 114.461 147.45 114.501 147.586 114.687C147.721 114.873 147.681 115.134 147.494 115.269L146.986 115.636C146.913 115.691 146.826 115.716 146.742 115.716ZM148.431 114.492C148.302 114.492 148.175 114.433 148.093 114.321C147.958 114.135 147.998 113.874 148.185 113.739L148.692 113.372C148.878 113.237 149.14 113.276 149.275 113.463C149.411 113.649 149.37 113.909 149.183 114.044L148.677 114.412C148.602 114.466 148.516 114.492 148.431 114.492ZM150.118 113.266C149.989 113.266 149.862 113.206 149.781 113.094C149.645 112.908 149.686 112.648 149.872 112.513L150.379 112.145C150.565 112.009 150.827 112.05 150.962 112.236C151.099 112.421 151.058 112.682 150.872 112.817L150.365 113.186C150.29 113.239 150.204 113.266 150.118 113.266ZM151.808 112.039C151.678 112.039 151.551 111.98 151.469 111.868C151.333 111.682 151.374 111.422 151.561 111.287L152.068 110.919C152.255 110.784 152.516 110.826 152.652 111.011C152.787 111.197 152.746 111.458 152.559 111.593L152.053 111.959C151.979 112.013 151.892 112.039 151.808 112.039ZM153.499 110.817C153.37 110.817 153.242 110.757 153.16 110.645C153.025 110.458 153.068 110.198 153.254 110.063L153.763 109.698C153.95 109.563 154.211 109.607 154.346 109.792C154.481 109.979 154.438 110.239 154.252 110.374L153.743 110.738C153.669 110.792 153.584 110.817 153.499 110.817ZM155.197 109.604C155.067 109.604 154.937 109.543 154.856 109.429C154.722 109.242 154.765 108.982 154.954 108.849L155.465 108.486C155.653 108.353 155.914 108.397 156.047 108.584C156.181 108.772 156.137 109.031 155.949 109.164L155.439 109.526C155.366 109.579 155.281 109.604 155.197 109.604ZM156.903 108.401C156.772 108.401 156.641 108.339 156.56 108.224C156.428 108.036 156.474 107.776 156.662 107.643L157.177 107.285C157.367 107.153 157.627 107.2 157.759 107.388C157.891 107.577 157.844 107.836 157.655 107.967L157.143 108.324C157.07 108.377 156.985 108.401 156.903 108.401ZM158.619 107.214C158.486 107.214 158.356 107.151 158.274 107.034C158.144 106.844 158.192 106.585 158.382 106.454C158.555 106.336 158.727 106.219 158.9 106.1C159.091 105.97 159.35 106.019 159.48 106.209C159.611 106.399 159.562 106.658 159.371 106.788C159.199 106.905 159.027 107.022 158.855 107.14C158.783 107.19 158.701 107.214 158.619 107.214ZM160.348 106.045C160.214 106.045 160.082 105.981 160 105.86C159.872 105.669 159.923 105.411 160.115 105.283C160.289 105.167 160.463 105.052 160.638 104.936C160.831 104.81 161.089 104.862 161.218 105.053C161.345 105.245 161.293 105.502 161.101 105.63C160.927 105.745 160.754 105.86 160.581 105.976C160.509 106.022 160.429 106.045 160.348 106.045ZM162.092 104.899C161.955 104.899 161.821 104.832 161.741 104.709C161.615 104.516 161.67 104.258 161.864 104.133C162.04 104.018 162.215 103.905 162.392 103.793C162.586 103.669 162.844 103.725 162.97 103.918C163.095 104.111 163.038 104.368 162.844 104.493C162.669 104.605 162.494 104.718 162.319 104.83C162.249 104.878 162.17 104.899 162.092 104.899ZM163.853 103.78C163.714 103.78 163.578 103.71 163.499 103.584C163.376 103.389 163.435 103.133 163.631 103.01C163.809 102.899 163.987 102.789 164.165 102.679C164.361 102.558 164.618 102.618 164.74 102.813C164.862 103.008 164.802 103.265 164.606 103.386C164.429 103.495 164.252 103.605 164.075 103.715C164.005 103.759 163.929 103.78 163.853 103.78ZM165.633 102.69C165.492 102.69 165.353 102.619 165.275 102.489C165.156 102.292 165.22 102.036 165.418 101.918L165.532 101.849C165.673 101.765 165.815 101.68 165.958 101.596C166.156 101.479 166.412 101.544 166.53 101.741C166.647 101.939 166.583 102.194 166.384 102.311C166.243 102.395 166.102 102.479 165.962 102.563L165.848 102.63C165.781 102.671 165.706 102.69 165.633 102.69ZM167.434 101.636C167.289 101.636 167.149 101.561 167.072 101.426C166.957 101.226 167.026 100.972 167.227 100.858C167.409 100.754 167.591 100.651 167.774 100.548C167.975 100.435 168.229 100.507 168.343 100.706C168.457 100.907 168.386 101.16 168.185 101.273C168.003 101.375 167.823 101.478 167.643 101.58C167.576 101.618 167.504 101.636 167.434 101.636ZM169.258 100.622C169.11 100.622 168.966 100.543 168.89 100.404C168.78 100.202 168.856 99.9493 169.058 99.8392C169.242 99.7396 169.427 99.6409 169.612 99.5423C169.817 99.4343 170.069 99.5111 170.178 99.7136C170.287 99.9161 170.211 100.168 170.006 100.277C169.823 100.375 169.64 100.474 169.457 100.572C169.394 100.606 169.325 100.622 169.258 100.622ZM171.106 99.6513C170.954 99.6513 170.808 99.5682 170.734 99.4249C170.629 99.2204 170.71 98.9691 170.915 98.8643C171.102 98.7687 171.289 98.6743 171.477 98.5808C171.683 98.478 171.934 98.56 172.038 98.7656C172.141 98.9712 172.058 99.2214 171.852 99.3242C171.667 99.4177 171.481 99.5111 171.296 99.6056C171.235 99.6368 171.169 99.6513 171.106 99.6513ZM172.978 98.7282C172.821 98.7282 172.672 98.641 172.6 98.4915C172.5 98.2838 172.589 98.0357 172.796 97.936C172.986 97.8457 173.176 97.7564 173.366 97.6671C173.576 97.5695 173.824 97.6598 173.922 97.8675C174.02 98.0762 173.93 98.3233 173.721 98.4209C173.532 98.5092 173.345 98.5974 173.157 98.6867C173.1 98.7147 173.038 98.7282 172.978 98.7282ZM174.874 97.855C174.714 97.855 174.562 97.7626 174.492 97.6079C174.398 97.3982 174.493 97.1521 174.704 97.0586C174.895 96.9735 175.088 96.8894 175.281 96.8053C175.492 96.7139 175.738 96.8105 175.831 97.0213C175.923 97.232 175.826 97.4771 175.614 97.5695C175.424 97.6526 175.233 97.7356 175.043 97.8197C174.989 97.8426 174.932 97.855 174.874 97.855ZM176.796 97.0358C176.632 97.0358 176.475 96.9382 176.41 96.7773C176.322 96.5644 176.424 96.3214 176.638 96.2342C176.833 96.1543 177.028 96.0764 177.223 95.9985C177.437 95.9134 177.68 96.0172 177.766 96.2311C177.851 96.445 177.747 96.6869 177.532 96.7721C177.339 96.8489 177.146 96.9268 176.954 97.0046C176.903 97.0265 176.849 97.0358 176.796 97.0358ZM178.743 96.2768C178.573 96.2768 178.414 96.173 178.351 96.0058C178.271 95.7909 178.38 95.551 178.596 95.47C178.793 95.3963 178.991 95.3247 179.188 95.253C179.405 95.1751 179.645 95.2862 179.724 95.5022C179.802 95.7182 179.69 95.957 179.474 96.0359C179.279 96.1065 179.083 96.1782 178.889 96.2498C178.841 96.2685 178.791 96.2768 178.743 96.2768ZM180.713 95.5811C180.538 95.5811 180.375 95.4711 180.317 95.2966C180.244 95.0786 180.362 94.8429 180.58 94.7692C180.781 94.7027 180.981 94.6373 181.181 94.5719C181.401 94.5013 181.636 94.6207 181.707 94.8398C181.778 95.0589 181.658 95.2935 181.438 95.3641C181.24 95.4275 181.043 95.4929 180.846 95.5583C180.801 95.5739 180.757 95.5811 180.713 95.5811ZM182.707 94.954C182.526 94.954 182.359 94.8367 182.306 94.656C182.241 94.4359 182.368 94.2043 182.589 94.1389C182.791 94.0797 182.993 94.0216 183.195 93.9634C183.418 93.9001 183.649 94.0289 183.711 94.25C183.774 94.4712 183.646 94.7017 183.424 94.764C183.223 94.82 183.024 94.8782 182.825 94.9363C182.786 94.9488 182.745 94.954 182.707 94.954ZM184.721 94.4016C184.535 94.4016 184.365 94.276 184.317 94.088C184.259 93.8648 184.395 93.6384 184.619 93.5813C184.823 93.5294 185.027 93.4785 185.233 93.4297C185.457 93.3758 185.683 93.5128 185.737 93.7371C185.791 93.9603 185.654 94.1856 185.429 94.2396C185.228 94.2884 185.026 94.3383 184.825 94.3891C184.79 94.3975 184.755 94.4016 184.721 94.4016ZM186.757 93.9292C186.564 93.9292 186.39 93.7952 186.348 93.599C186.3 93.3737 186.445 93.1536 186.67 93.1058C186.876 93.0622 187.083 93.0196 187.289 92.9791C187.514 92.9345 187.735 93.0809 187.78 93.3062C187.825 93.5315 187.678 93.7506 187.452 93.7952C187.248 93.8357 187.045 93.8773 186.843 93.9198C186.815 93.9261 186.786 93.9292 186.757 93.9292ZM188.81 93.5408C188.61 93.5408 188.432 93.3965 188.398 93.193C188.36 92.9667 188.514 92.7517 188.741 92.7133C188.949 92.6791 189.157 92.6458 189.365 92.6136C189.592 92.5783 189.806 92.7341 189.841 92.9615C189.877 93.1889 189.72 93.4017 189.492 93.436C189.288 93.4671 189.083 93.5004 188.878 93.5346C188.855 93.5388 188.833 93.5408 188.81 93.5408ZM190.877 93.2439C190.669 93.2439 190.489 93.0892 190.463 92.8774C190.434 92.6489 190.598 92.4413 190.827 92.4143C191.037 92.3894 191.246 92.3655 191.456 92.3426C191.685 92.3188 191.891 92.4838 191.915 92.7123C191.94 92.9407 191.774 93.1463 191.544 93.1702C191.339 93.192 191.133 93.2159 190.927 93.2397C190.912 93.2429 190.894 93.2439 190.877 93.2439ZM192.956 93.0425C192.74 93.0425 192.556 92.8753 192.541 92.6562C192.524 92.4267 192.697 92.2274 192.927 92.2108C193.138 92.1952 193.347 92.1817 193.558 92.1692C193.79 92.1568 193.986 92.3312 194 92.5607C194.013 92.7901 193.837 92.9874 193.607 93.0009C193.4 93.0134 193.194 93.0269 192.988 93.0414C192.977 93.0414 192.967 93.0425 192.956 93.0425ZM197.759 92.9687C197.753 92.9687 197.746 92.9687 197.74 92.9687C197.534 92.9594 197.326 92.9521 197.12 92.9469C196.89 92.9407 196.707 92.7486 196.715 92.5192C196.721 92.2897 196.915 92.108 197.144 92.1152C197.355 92.1215 197.566 92.1287 197.777 92.1381C198.007 92.1485 198.186 92.3426 198.176 92.5721C198.165 92.7943 197.981 92.9687 197.759 92.9687ZM195.043 92.9417C194.817 92.9417 194.63 92.7621 194.625 92.5347C194.62 92.3053 194.802 92.1142 195.033 92.109C195.243 92.1038 195.455 92.1007 195.665 92.0986C195.905 92.1017 196.084 92.2814 196.086 92.5108C196.088 92.7403 195.903 92.9293 195.672 92.9303C195.465 92.9324 195.259 92.9355 195.052 92.9407C195.049 92.9417 195.046 92.9417 195.043 92.9417Z" fill="url(#paint1_linear_38_90)"/>
<path d="M180.409 31.5332L180.896 35.0126L183.053 33.1872L180.409 31.5332Z" fill="#7D97F4"/>
<path d="M195.835 27.3477L187.559 36.9053C187.401 37.088 187.175 37.1991 186.932 37.2126C186.69 37.2261 186.452 37.14 186.275 36.9759L176.957 28.3351C176.851 28.2364 176.814 28.0828 176.866 27.9468C176.918 27.8107 177.048 27.7204 177.194 27.7173L195.835 27.3477Z" fill="#91B3FA"/>
<path d="M180.41 31.5331L195.835 27.3477L181.909 32.9317L182.003 33.9025L180.41 31.5331Z" fill="#7D97F4"/>
<path d="M182.805 33.755L180.896 35.0124L181.909 32.9316L182.805 33.755Z" fill="#7D97F4"/>
</g>
<g clip-path="url(#clip1_38_90)">
<path d="M174.441 160H59.2393V62.6309L116.831 26.0923L174.441 62.6309V160Z" fill="#4B006E"/>
<path opacity="0.2" d="M174.441 160H59.2393V62.6309L116.831 26.0923L174.441 62.6309V160Z" fill="#FCFCFC"/>
<path d="M167.949 21.4619H65.7407V152.558H167.949V21.4619Z" fill="white"/>
<path d="M110.615 99.8954L87.2124 76.2193L95.0746 68.465L108.748 82.2922L137.153 37.8064L146.468 43.7415L110.615 99.8954Z" fill="#4B006E"/>
<path d="M104.746 116.206L104.751 116.203C107.653 118.011 110.559 119.827 113.463 121.643C114.327 122.183 115.191 122.724 116.054 123.263L116.853 123.762L117.649 123.26C121.658 120.734 125.69 118.201 129.712 115.715L131.7 114.486L131.682 114.474C136.416 111.527 141.152 108.597 145.915 105.697L145.916 105.696C150.758 102.74 155.606 99.8045 160.481 96.9062C162.152 95.929 163.81 94.9496 165.462 93.9731C167.956 92.4996 170.438 91.0327 172.941 89.5904V158.5H60.7393V89.5907C63.305 91.0698 65.8503 92.5765 68.4019 94.0868C69.9896 95.0266 71.5797 95.9678 73.1787 96.9047C78.0597 99.8253 82.9245 102.742 87.7604 105.712L87.7603 105.712L87.7665 105.716C93.1571 108.991 98.5491 112.332 103.925 115.693L104.746 116.206Z" fill="#A676E7" stroke="#4B006E" stroke-width="3"/>
<g opacity="0.2">
<path d="M174.441 87.0053C169.788 90.276 165.043 93.3998 160.363 96.6154C155.636 99.7575 150.9 102.909 146.137 106.014C141.171 109.267 136.188 112.482 131.204 115.679C131.047 115.78 130.909 115.891 130.753 115.992C126.339 118.812 121.916 121.624 117.484 124.444L116.831 124.839L116.187 124.444C111.755 121.624 107.35 118.812 102.936 115.973C102.78 115.891 102.624 115.78 102.467 115.679C97.4651 112.482 92.4811 109.267 87.5155 105.996C82.7706 102.9 78.0349 99.7575 73.3084 96.6062C68.6186 93.3906 63.8829 90.2668 59.23 86.9961C64.1772 89.7983 69.0416 92.7383 73.9337 95.6048C78.8165 98.5264 83.6901 101.448 88.5362 104.425C93.934 107.705 99.3318 111.049 104.711 114.412C104.73 114.412 104.73 114.412 104.748 114.43C108.776 116.938 112.812 119.465 116.84 121.982C120.849 119.455 124.886 116.92 128.914 114.43C128.932 114.393 128.932 114.393 128.951 114.393C134.33 111.04 139.709 107.705 145.126 104.406C149.972 101.448 154.827 98.508 159.71 95.6048C164.639 92.7383 169.494 89.8075 174.441 87.0053Z" fill="black"/>
<path d="M104.895 114.32C104.84 114.356 104.812 114.402 104.757 114.439C104.15 114.954 103.543 115.477 102.937 115.973C100.049 118.408 97.0881 120.742 94.0812 123.011C90.4122 125.813 86.6604 128.487 82.8902 131.151C79.1017 133.76 75.2947 136.351 71.405 138.841C67.5153 141.331 63.5888 143.765 59.5151 145.998C63.0094 142.939 66.6417 140.09 70.3107 137.307C73.9981 134.504 77.7499 131.831 81.5017 129.167C85.3086 126.539 89.1156 123.948 93.0053 121.458C96.1042 119.474 99.2491 117.517 102.468 115.689C103.212 115.257 103.957 114.843 104.72 114.43C104.776 114.384 104.84 114.347 104.895 114.32Z" fill="black"/>
<path d="M174.165 145.998C170.101 143.765 166.156 141.331 162.275 138.841C158.386 136.351 154.579 133.76 150.772 131.151C147.002 128.487 143.25 125.813 139.581 123.011C136.592 120.751 133.631 118.426 130.753 115.992C130.128 115.477 129.521 114.954 128.923 114.439C128.868 114.402 128.84 114.356 128.785 114.32C128.84 114.356 128.905 114.393 128.96 114.402C129.723 114.834 130.468 115.248 131.213 115.679C134.431 117.508 137.558 119.465 140.675 121.449C144.565 123.939 148.372 126.53 152.16 129.157C155.93 131.822 159.682 134.495 163.351 137.297C167.039 140.09 170.671 142.939 174.165 145.998Z" fill="black"/>
</g>
<path d="M67.552 15.2052C67.1842 12.6694 67.1014 10.1337 67.083 7.59796C67.0922 5.06221 67.175 2.52647 67.5336 -0.00927734C67.9014 2.52647 67.9842 5.06221 68.0026 7.59796C67.9934 10.1337 67.9106 12.6694 67.552 15.2052Z" fill="#A75ECA"/>
<path d="M61.0877 17.6215C59.0371 16.0872 57.1796 14.3508 55.3773 12.5776C53.5934 10.7768 51.8554 8.93016 50.3105 6.88135C52.3612 8.41566 54.2187 10.1429 56.021 11.9253C57.8049 13.726 59.5429 15.5727 61.0877 17.6215Z" fill="#A75ECA"/>
<path d="M58.2185 23.8965C55.6806 24.264 53.1426 24.3467 50.6046 24.365C48.0667 24.3558 45.5287 24.2732 42.9907 23.9149C45.5287 23.5474 48.0667 23.4647 50.6046 23.4463C53.1426 23.4555 55.6806 23.5382 58.2185 23.8965Z" fill="#A75ECA"/>
<path d="M60.6368 30.3555C59.1011 32.4043 57.3632 34.2601 55.5884 36.0609C53.7861 37.8433 51.9378 39.5797 49.8872 41.1232C51.4229 39.0744 53.1516 37.2185 54.9356 35.4178C56.7379 33.6354 58.5862 31.899 60.6368 30.3555Z" fill="#A75ECA"/>
<path d="M165.448 15.2052C165.089 12.6694 165.006 10.1337 164.997 7.59796C165.015 5.06221 165.098 2.52647 165.466 -0.00927734C165.825 2.52647 165.907 5.06221 165.917 7.59796C165.889 10.1429 165.806 12.6694 165.448 15.2052Z" fill="#A75ECA"/>
<path d="M171.912 17.6215C173.448 15.5727 175.186 13.726 176.979 11.9253C178.781 10.1429 180.639 8.41566 182.689 6.88135C181.154 8.93016 179.416 10.7768 177.623 12.5776C175.82 14.3508 173.963 16.0872 171.912 17.6215Z" fill="#A75ECA"/>
<path d="M174.772 23.8965C177.31 23.5382 179.848 23.4555 182.386 23.4463C184.924 23.4647 187.462 23.5474 190 23.9149C187.462 24.2732 184.924 24.3558 182.386 24.365C179.848 24.3467 177.31 24.264 174.772 23.8965Z" fill="#A75ECA"/>
<path d="M172.363 30.3555C174.413 31.8898 176.262 33.6262 178.064 35.4086C179.848 37.2093 181.577 39.0652 183.112 41.114C181.062 39.5797 179.213 37.8433 177.411 36.0517C175.627 34.2601 173.898 32.4043 172.363 30.3555Z" fill="#A75ECA"/>
</g>
<defs>
<linearGradient id="paint0_linear_38_90" x1="3.70008" y1="86.5405" x2="232" y2="86.5405" gradientUnits="userSpaceOnUse">
<stop stop-color="#DAE3FE"/>
<stop offset="1" stop-color="#E9EFFD"/>
</linearGradient>
<linearGradient id="paint1_linear_38_90" x1="28.4541" y1="118.625" x2="198.176" y2="118.625" gradientUnits="userSpaceOnUse">
<stop stop-color="#DAE3FE"/>
<stop offset="1" stop-color="#E9EFFD"/>
</linearGradient>
<clipPath id="clip0_38_90">
<rect width="232" height="145" fill="white" transform="translate(0 16)"/>
</clipPath>
<clipPath id="clip1_38_90">
<rect width="147" height="160" fill="white" transform="translate(43)"/>
</clipPath>
</defs>
</svg>
