<svg width="108" height="169" viewBox="0 0 108 169" fill="none" xmlns="http://www.w3.org/2000/svg">
<path d="M56 8.5C56 13.1944 52.1944 17 47.5 17C42.8056 17 39 13.1944 39 8.5C39 3.80558 42.8056 0 47.5 0C52.1944 0 56 3.80558 56 8.5ZM40.7605 8.5C40.7605 12.2221 43.7779 15.2395 47.5 15.2395C51.2221 15.2395 54.2395 12.2221 54.2395 8.5C54.2395 4.7779 51.2221 1.76054 47.5 1.76054C43.7779 1.76054 40.7605 4.7779 40.7605 8.5Z" fill="white" fill-opacity="0.18"/>
<path d="M0 115C6.19948e-07 107.909 1.39675 100.887 4.11051 94.3351C6.82426 87.7835 10.8019 81.8306 15.8162 76.8162C20.8306 71.8019 26.7835 67.8243 33.3351 65.1105C39.8867 62.3967 46.9086 61 54 61C61.0914 61 68.1133 62.3968 74.6649 65.1105C81.2165 67.8243 87.1694 71.8019 92.1838 76.8162C97.1981 81.8306 101.176 87.7835 103.889 94.3351C106.603 100.887 108 107.909 108 115L96.8154 115C96.8154 109.377 95.7079 103.81 93.5563 98.6153C91.4046 93.4207 88.2508 88.7007 84.2751 84.7249C80.2993 80.7492 75.5794 77.5954 70.3847 75.4437C65.1901 73.2921 59.6226 72.1846 54 72.1846C48.3774 72.1846 42.8099 73.2921 37.6153 75.4437C32.4207 77.5954 27.7007 80.7492 23.7249 84.7249C19.7492 88.7007 16.5954 93.4206 14.4437 98.6153C12.2921 103.81 11.1846 109.377 11.1846 115L0 115Z" fill="white" fill-opacity="0.18"/>
</svg>
