<svg width="336" height="366" viewBox="0 0 336 366" fill="none" xmlns="http://www.w3.org/2000/svg">
<path d="M0 257.5C1.24564e-06 243.252 2.80644 229.143 8.25908 215.979C13.7117 202.815 21.7038 190.854 31.7789 180.779C41.8541 170.704 53.815 162.712 66.9789 157.259C80.1427 151.806 94.2516 149 108.5 149C122.748 149 136.857 151.806 150.021 157.259C163.185 162.712 175.146 170.704 185.221 180.779C195.296 190.854 203.288 202.815 208.741 215.979C214.194 229.143 217 243.252 217 257.5H194.527C194.527 246.203 192.302 235.016 187.979 224.579C183.656 214.142 177.319 204.658 169.33 196.67C161.342 188.681 151.859 182.344 141.421 178.021C130.984 173.698 119.797 171.473 108.5 171.473C97.2028 171.473 86.0161 173.698 75.5788 178.021C65.1415 182.344 55.6579 188.681 47.6696 196.67C39.6812 204.658 33.3445 214.141 29.0212 224.579C24.6979 235.016 22.4728 246.203 22.4728 257.5H0Z" fill="white" fill-opacity="0.18"/>
<path d="M304 111.5C304 132.211 287.211 149 266.5 149C245.789 149 229 132.211 229 111.5C229 90.7893 245.789 74 266.5 74C287.211 74 304 90.7893 304 111.5ZM236.767 111.5C236.767 127.921 250.079 141.233 266.5 141.233C282.921 141.233 296.233 127.921 296.233 111.5C296.233 95.079 282.921 81.7671 266.5 81.7671C250.079 81.7671 236.767 95.079 236.767 111.5Z" fill="white" fill-opacity="0.18"/>
<path d="M336 19C336 29.4934 327.493 38 317 38C306.507 38 298 29.4934 298 19C298 8.50659 306.507 0 317 0C327.493 0 336 8.50659 336 19ZM301.935 19C301.935 27.32 308.68 34.0647 317 34.0647C325.32 34.0647 332.065 27.32 332.065 19C332.065 10.68 325.32 3.93532 317 3.93532C308.68 3.93532 301.935 10.68 301.935 19Z" fill="white" fill-opacity="0.18"/>
</svg>
