<svg width="654" height="289" viewBox="0 0 654 289" fill="none" xmlns="http://www.w3.org/2000/svg">
<path d="M209.732 221.749H179.931V274.025H107.677V221.749H0V168.068L112.457 3.65381H179.931V167.225H209.732V221.749ZM107.958 167.225V135.748C107.958 129.846 108.24 121.976 108.521 111.858C109.083 101.741 109.364 96.6816 109.645 96.1195H107.677C103.46 105.675 98.6808 114.388 93.3391 122.819L63.2569 167.225H107.958Z" fill="#EEDCFC"/>
<path d="M424.243 139.401C424.243 187.18 416.09 222.311 400.346 244.514C384.321 266.717 359.862 277.959 326.687 277.959C294.356 277.959 270.178 266.436 253.59 243.109C237.284 219.782 229.131 185.212 229.131 139.401C229.131 91.3415 237.003 56.2102 253.309 33.7261C269.334 11.242 293.793 0 326.968 0C359.018 0 383.478 11.8041 399.784 35.1313C415.809 58.4586 424.243 93.0278 424.243 139.401ZM301.665 139.401C301.665 170.036 303.633 191.115 307.288 202.357C311.224 213.88 317.409 219.501 326.406 219.501C335.403 219.501 341.869 213.599 345.805 201.794C349.46 189.99 351.428 169.193 351.428 139.401C351.428 109.329 349.46 88.531 345.805 76.4458C341.869 64.3606 335.684 58.4586 326.687 58.4586C317.691 58.4586 311.224 64.3606 307.569 75.8837C303.352 87.4068 301.665 108.486 301.665 139.401Z" fill="#EEDCFC"/>
<path d="M653.656 221.749H623.855V274.025H551.601V221.749H443.924V168.068L556.381 3.65381H623.855V167.225H653.656V221.749ZM551.882 167.225V135.748C551.882 129.846 552.163 121.976 552.445 111.858C553.007 101.741 553.288 96.6816 553.569 96.1195H551.601C547.384 105.675 542.605 114.388 537.263 122.819L507.181 167.225H551.882Z" fill="#EEDCFC"/>
<path d="M447.577 241.141C447.577 241.141 450.107 237.207 450.67 232.991C451.232 228.775 447.296 224.84 443.922 222.311C440.548 219.781 432.395 213.036 437.456 209.945C442.516 206.853 469.506 198.703 475.972 193.644C482.439 188.585 482.439 179.31 480.752 175.375C479.065 171.16 460.791 155.14 426.21 155.14C391.63 155.14 350.021 172.003 343.836 172.284C337.651 172.565 337.932 161.042 337.932 161.042L337.088 155.14H314.035L310.38 161.042C310.38 161.042 311.786 168.911 305.319 169.754C298.853 170.317 266.803 153.172 243.749 144.179C229.692 138.558 207.763 134.623 201.016 134.623C190.613 134.623 175.151 142.774 171.777 155.702C168.403 168.63 179.93 194.768 182.741 201.232C185.553 207.696 187.521 211.069 186.115 214.441C184.709 217.814 181.336 230.18 180.492 233.553C179.93 236.926 179.93 243.109 180.492 243.671C181.055 244.233 190.613 252.664 191.457 252.945C192.3 253.227 197.08 254.07 195.112 249.573C197.361 252.102 198.485 256.037 200.453 252.945C202.421 249.573 200.453 234.958 200.453 227.651C200.453 220.344 212.542 211.069 213.667 210.507C214.792 209.945 224.632 210.507 227.162 210.507C229.692 210.507 233.066 207.134 227.162 204.605C221.258 202.075 215.916 203.48 211.418 203.199C206.92 202.918 199.61 201.513 202.702 191.957C204.108 187.742 204.67 181.559 204.952 175.656H205.233C217.884 188.304 248.247 201.232 248.247 201.232L267.927 214.441L328.373 229.618L373.356 221.468L386.007 209.945C386.007 209.945 385.445 200.951 398.096 200.951C404.562 200.951 413.84 199.827 415.527 198.703" fill="white"/>
<path d="M199.329 255.756C198.204 255.756 197.08 254.913 196.517 253.789C194.83 254.913 192.581 254.632 191.457 254.351C190.894 254.07 190.613 254.07 182.179 246.762C181.055 245.638 179.93 244.795 179.93 244.795C177.681 243.109 179.368 232.991 179.368 232.991C179.93 229.618 183.585 216.971 184.99 213.317C185.834 211.069 184.99 208.821 182.741 204.324C182.46 203.481 181.898 202.637 181.617 201.513L181.336 200.951C171.777 179.029 168.122 163.29 170.371 154.859C174.026 141.93 189.489 132.656 201.297 132.656C201.297 132.656 201.297 132.656 201.578 132.656C208.888 132.656 230.817 136.872 244.593 142.493C253.87 146.146 264.273 150.924 274.394 155.421C287.888 161.604 301.946 168.068 305.319 167.787C306.444 167.787 307.287 167.225 308.131 166.382C309.255 164.696 309.255 162.166 308.974 161.323C308.974 160.761 308.974 160.48 309.255 160.199L312.91 154.297C313.191 153.735 313.753 153.454 314.316 153.454H337.369C338.213 153.454 339.056 154.016 339.056 155.14L339.9 161.042C339.9 163.009 340.181 168.349 342.149 170.317C342.711 170.879 343.273 171.16 343.836 170.879C345.241 170.879 350.021 169.473 355.644 167.506C372.512 162.166 400.907 153.735 426.21 153.735C461.634 153.735 480.752 170.598 482.439 175.094C484.407 180.153 484.125 189.99 477.097 195.611C472.88 198.703 461.915 202.918 452.075 206.572C445.89 208.821 440.267 211.069 438.299 212.193C437.456 212.755 437.456 213.036 437.456 213.317C437.456 215.004 440.267 218.376 444.766 221.749C447.296 223.716 453.2 228.494 452.075 234.115C451.232 238.612 448.983 242.828 448.702 242.828C448.139 243.671 447.015 243.952 446.171 243.39C445.328 242.828 445.047 241.704 445.609 240.86C445.609 240.86 447.858 237.207 448.42 233.272C448.983 229.337 443.922 225.403 442.516 224.278C439.143 221.749 433.52 216.971 433.801 212.755C433.801 211.631 434.363 209.945 436.331 208.821C438.58 207.415 444.203 205.448 450.67 202.919C459.666 199.546 470.912 195.33 474.567 192.52C480.471 188.023 480.189 179.591 478.784 176.219C477.097 172.284 459.104 157.107 425.648 157.107C400.907 157.107 372.793 165.82 355.925 170.879C349.458 172.846 344.96 174.251 343.273 174.251C341.587 174.251 340.181 173.689 338.775 172.565C335.401 169.192 335.401 161.885 335.401 161.042L334.839 157.107H314.316L311.504 161.604C311.785 163.009 311.786 166.382 309.818 168.911C308.693 170.598 306.725 171.441 304.757 171.722C300.54 172.003 289.575 167.225 271.863 159.075C261.742 154.578 251.621 149.8 242.343 146.146C228.005 140.525 206.076 136.59 200.453 136.59C191.176 136.59 176.275 144.179 172.901 156.264C171.496 161.604 172.058 173.689 183.585 200.108L183.866 200.67C184.147 201.513 184.709 202.637 184.99 203.481C187.24 208.539 188.645 211.631 187.24 215.285C185.834 218.657 182.46 231.024 181.898 234.115C181.336 237.207 181.336 241.422 181.617 242.828C182.179 243.109 182.741 243.952 183.866 244.795C186.115 246.762 190.613 250.697 191.738 251.54C192.581 251.821 193.144 251.54 193.425 251.54C193.425 251.54 193.425 251.259 193.144 250.697C192.862 249.854 193.144 249.011 193.706 248.449C194.549 247.887 195.393 248.168 195.955 248.73C196.798 249.573 197.361 250.416 197.923 251.259C198.204 251.54 198.485 252.102 198.766 252.383C199.891 250.697 199.329 242.266 199.048 236.645C198.766 233.272 198.485 230.461 198.485 227.932C198.485 219.219 212.542 209.383 212.542 209.102C213.386 208.539 215.354 208.539 223.507 208.821C224.913 208.821 226.318 208.821 226.881 208.821C227.724 208.821 228.286 208.258 228.567 207.977C228.567 207.696 228.286 207.134 226.318 206.291C222.664 204.605 219.009 204.886 215.635 204.886C213.948 204.886 212.542 204.886 211.137 204.886C208.044 204.605 203.827 204.043 201.578 200.67C199.891 198.422 199.891 195.049 201.016 191.395C202.14 188.023 202.984 182.683 203.265 175.657C203.265 175.094 203.546 174.813 203.827 174.532C204.108 174.251 204.67 173.97 205.233 173.97H205.514C206.076 173.97 206.357 174.251 206.638 174.532C219.009 186.899 248.81 199.546 249.091 199.827L268.771 213.036L328.654 227.932L372.793 219.782L384.601 209.102C384.601 207.696 385.164 205.167 387.132 202.919C389.662 200.389 393.317 198.984 398.377 198.984C405.406 198.984 413.559 197.86 414.683 197.016C415.527 196.454 416.651 196.735 417.214 197.298C417.776 198.141 417.776 198.984 416.932 199.827C414.402 201.794 402.313 202.356 398.377 202.356C394.441 202.356 391.63 203.2 389.943 205.167C388.256 207.134 388.256 209.383 388.256 209.383C388.256 209.945 387.975 210.507 387.694 210.788L375.042 222.311C374.761 222.592 374.48 222.592 374.199 222.873L329.216 231.024C328.935 231.024 328.654 231.024 328.373 231.024L267.927 215.847C267.646 215.847 267.646 215.847 267.365 215.566L247.685 202.356C246.842 202.075 220.414 190.833 206.638 178.748C206.076 184.369 205.514 188.866 204.389 191.957C203.546 194.768 203.546 197.016 204.389 198.422C205.795 200.389 209.169 200.951 211.418 201.232C212.542 201.232 213.948 201.232 215.354 201.232C219.009 201.232 223.226 200.951 227.724 202.919C232.222 204.886 232.222 207.415 231.941 208.54C231.379 210.788 229.13 212.193 226.881 212.193C226.037 212.193 224.913 212.193 223.226 212.193C220.695 212.193 215.073 211.912 213.948 212.193C211.98 213.317 201.859 222.03 201.859 227.651C201.859 229.899 202.14 232.991 202.14 236.082C202.702 245.076 202.984 251.259 201.578 253.789C201.859 254.351 201.016 255.756 199.329 255.756Z" fill="#3B4B75"/>
<path d="M357.33 100.054C357.33 100.054 363.797 90.217 377.01 92.4654C390.224 94.7138 369.701 107.923 360.423 107.08L354.238 122.819L343.554 134.623L326.405 130.969L307.568 130.688L299.415 122.819L295.479 105.394C295.479 105.394 273.55 99.2106 274.675 91.0601C275.799 82.9097 293.511 94.1517 293.511 94.1517C293.511 94.1517 296.885 86.0012 299.415 85.1581C301.945 84.3149 301.664 74.1971 301.664 74.1971L347.771 70.5435L357.611 83.4718V100.054H357.33Z" fill="white"/>
<path d="M343.835 136.309H343.554L326.405 132.656L307.849 132.375C307.287 132.375 307.006 132.094 306.725 131.813L298.572 123.943C298.29 123.662 298.009 123.381 298.009 123.1L294.354 106.799C289.575 105.394 272.144 99.4918 273.269 90.7792C273.55 88.2498 274.956 87.4066 276.08 86.8445C280.579 84.8771 289.013 89.0929 293.23 91.6224C294.636 88.5308 296.885 84.315 299.415 83.4719C299.977 82.9098 300.54 78.413 300.258 74.1972C300.258 73.354 300.821 72.5109 301.945 72.2298L348.053 68.5762C348.615 68.5762 349.177 68.8573 349.739 69.1383L359.579 82.0666C359.861 82.3477 359.861 82.6287 359.861 83.1909V95.276C363.234 92.4655 369.419 88.8118 378.135 90.4981C383.477 91.3413 384.039 94.1518 383.758 95.8381C382.914 101.459 369.982 108.485 362.391 108.766L356.487 123.381C356.487 123.662 356.206 123.662 356.206 123.943L345.522 135.747C344.679 136.028 344.117 136.309 343.835 136.309ZM308.412 128.44L326.686 128.721L343.273 132.375L353.113 121.414L359.298 105.956C359.579 105.113 360.423 104.832 360.985 104.832C367.17 105.394 379.259 98.3676 379.822 94.995C379.822 94.4329 378.416 93.8708 377.01 93.5897C365.202 91.6224 359.298 100.335 359.017 100.616C358.455 101.178 357.893 101.459 357.049 101.459C356.206 101.178 355.643 100.616 355.643 99.7728V83.7529L346.647 71.9488L303.351 75.6024C303.351 79.8182 302.789 85.7203 299.977 86.5635C299.134 86.8445 296.604 90.7792 295.198 94.7139C294.917 95.276 294.636 95.5571 294.073 95.8381C293.511 96.1192 292.949 95.8381 292.668 95.5571C287.888 92.4655 280.016 88.8119 277.205 89.9361C276.924 89.9361 276.642 90.2171 276.361 91.0602C275.799 96.1192 289.294 101.74 296.041 103.427C296.604 103.708 297.166 103.989 297.166 104.832L301.102 121.695L308.412 128.44Z" fill="#3B4B75"/>
<path d="M422.838 284.142C411.873 282.737 400.627 281.613 389.663 280.488C386.008 280.207 382.353 279.926 378.698 279.645C374.2 279.364 369.702 279.083 364.922 278.802C359.581 278.521 354.52 278.24 349.459 278.24C326.406 277.678 302.79 278.24 279.455 280.207C275.8 280.489 272.145 280.77 268.491 281.051C264.555 281.332 260.338 281.894 256.402 282.175C242.626 283.58 229.131 285.266 216.198 287.234C216.198 287.234 194.831 279.364 195.394 243.39C195.956 207.415 235.035 200.951 249.092 201.232C259.494 201.232 305.882 213.036 333.153 213.598C360.424 214.161 391.912 208.821 407.937 209.383C423.962 209.945 443.923 226.808 443.923 248.168C443.923 268.965 425.649 284.423 422.838 284.142Z" fill="#D49DFF"/>
<path d="M216.197 288.92C215.916 288.92 215.635 288.92 215.635 288.92C214.792 288.639 193.144 279.927 193.706 243.39C194.268 208.54 229.973 199.265 249.091 199.265C253.308 199.265 262.867 200.951 274.956 203.481C293.511 207.134 316.846 211.35 333.152 211.631C348.053 211.912 364.359 210.507 378.697 209.102C390.505 207.977 400.627 207.134 407.936 207.415C425.086 207.977 445.89 226.246 445.89 247.887C445.89 262.501 437.456 275.149 429.584 282.175C427.616 284.142 424.524 286.11 422.556 285.829C411.31 284.423 400.064 283.018 389.662 282.175C386.007 281.894 382.352 281.613 378.697 281.332C374.199 281.051 369.701 280.77 365.203 280.489C360.142 280.208 354.8 279.927 349.74 279.927C327.811 279.364 304.195 279.926 279.736 281.894C276.081 282.175 272.426 282.456 268.771 282.737C264.835 283.018 260.618 283.58 256.682 283.861C243.187 285.266 229.692 286.953 216.197 288.92ZM248.81 202.638C231.098 202.638 197.642 211.069 197.08 243.109C196.518 274.868 213.386 283.861 216.197 285.266C229.411 283.299 242.906 281.613 256.12 280.208C260.056 279.927 264.273 279.364 268.209 279.083C271.864 278.802 275.518 278.521 279.173 278.24C303.633 276.554 327.248 275.711 349.459 276.273C354.519 276.273 359.861 276.554 364.921 276.835C369.42 277.116 373.918 277.397 378.697 277.678C382.352 277.959 386.007 278.24 389.662 278.521C400.345 279.364 411.31 280.77 422.837 282.175C425.648 281.613 441.954 267.279 441.954 247.606C441.954 227.651 423.118 211.35 407.655 210.788C400.627 210.507 390.505 211.35 378.979 212.474C364.64 213.88 348.334 215.285 333.152 215.004C316.284 214.723 292.949 210.226 274.113 206.572C262.586 204.605 252.746 202.638 248.81 202.638Z" fill="#3B4B75"/>
<path d="M413.278 261.939C387.413 261.939 349.178 258.566 310.099 251.54C248.529 240.298 196.799 254.07 196.236 254.351C195.393 254.632 194.268 254.07 193.987 253.227C193.706 252.383 194.268 251.259 195.112 250.978C195.674 250.697 248.248 236.926 310.38 248.168C373.356 259.691 429.303 260.253 441.673 255.756C442.517 255.475 443.641 256.037 443.922 256.88C444.204 257.723 443.922 258.848 442.798 259.129C438.018 261.096 427.335 261.939 413.278 261.939Z" fill="#3B4B75"/>
<path d="M194.268 249.292H193.987C193.706 249.292 186.959 247.044 186.115 241.704C185.272 236.926 186.115 229.899 186.115 229.337C186.115 228.494 186.677 228.213 187.521 228.213C188.364 228.213 188.927 229.056 188.645 229.618C188.645 229.618 188.083 236.926 188.645 241.141C189.208 244.795 194.83 246.762 194.83 246.762C195.393 247.044 195.955 247.606 195.674 248.449C195.393 248.73 194.83 249.292 194.268 249.292Z" fill="#3B4B75"/>
<path d="M446.171 244.795C445.89 244.795 445.328 244.514 445.047 244.233C444.484 243.671 444.766 242.828 445.328 242.266C446.452 241.423 446.734 236.082 446.171 231.586C446.171 230.743 446.734 230.18 447.296 230.18C448.139 230.18 448.702 230.743 448.702 231.305C448.983 233.834 449.545 241.985 446.734 244.233C446.734 244.795 446.452 244.795 446.171 244.795Z" fill="#3B4B75"/>
<path d="M326.686 125.63C325.843 125.63 324.999 124.787 324.999 123.943C324.718 115.512 323.875 102.021 323.594 98.3677C322.469 98.3677 320.501 98.0867 319.377 98.3677C318.533 101.178 316.846 112.701 315.722 122.819C315.722 123.662 314.878 124.505 313.754 124.224C312.91 124.224 312.067 123.1 312.348 122.257C315.441 96.4004 316.565 95.8382 317.127 95.2761C318.814 93.8709 324.999 94.7141 325.843 94.9951C326.967 95.5572 327.249 95.8383 328.654 123.662C328.654 124.786 327.811 125.63 326.686 125.63Z" fill="#3B4B75"/>
<path d="M311.504 111.577C311.785 113.263 308.411 112.982 304.475 113.544C300.539 114.107 297.447 115.512 297.166 114.107C296.885 112.42 299.415 108.485 303.351 107.923C307.287 107.08 311.223 110.172 311.504 111.577Z" fill="#FF9292"/>
<path d="M304.757 109.61C297.447 109.61 291.543 103.708 291.543 96.4003C291.543 89.093 297.447 83.1909 304.757 83.1909C312.066 83.1909 317.97 89.093 317.97 96.4003C317.97 103.708 312.066 109.61 304.757 109.61ZM304.757 86.8445C299.415 86.8445 294.917 91.0603 294.917 96.6813C294.917 102.021 299.134 106.518 304.757 106.518C310.098 106.518 314.597 102.302 314.597 96.6813C314.597 91.0603 310.098 86.8445 304.757 86.8445Z" fill="#3B4B75"/>
<path d="M329.216 113.544C328.935 115.231 332.59 115.231 336.807 116.074C341.024 116.917 344.398 118.884 344.679 116.917C344.96 115.231 342.43 110.734 338.213 109.61C333.996 108.767 329.779 111.858 329.216 113.544Z" fill="#FF9292"/>
<path d="M337.931 111.296C337.65 111.296 337.369 111.296 337.087 111.296C333.433 111.015 330.34 109.61 327.81 106.799C325.561 104.27 324.155 100.897 324.436 97.2435C324.717 89.9362 330.902 84.3152 338.493 84.5963C345.803 84.8773 351.426 91.3415 351.145 98.6488C350.863 102.302 349.458 105.394 346.646 107.923C344.397 110.172 341.305 111.296 337.931 111.296ZM328.372 97.5245C328.372 100.054 329.215 102.583 330.902 104.551C332.589 106.518 335.119 107.642 337.65 107.642C340.18 107.642 342.71 106.799 344.678 105.113C346.646 103.427 347.771 100.897 347.771 98.3677C348.052 93.0278 343.835 88.5309 338.493 88.2499C333.151 88.2499 328.653 92.1846 328.372 97.5245Z" fill="#3B4B75"/>
<path d="M304.756 59.0206C304.756 59.0206 297.447 55.3669 291.543 60.4258C285.639 65.2037 282.546 76.7268 288.45 80.6615C294.354 84.5962 295.479 85.1583 299.134 85.1583C303.069 85.4394 302.226 81.7857 306.724 79.2563C311.223 76.7268 316.002 77.0078 317.408 79.8183C318.813 82.6289 319.095 86.0015 322.749 85.1583C326.404 84.3152 324.999 78.1321 328.935 77.57C332.871 77.0079 333.714 79.8184 337.931 80.0994C342.148 80.3805 341.305 78.4131 344.679 81.5047C348.052 84.5962 350.301 82.6289 351.145 85.1583C351.988 87.6878 354.237 91.3415 355.924 94.152C357.611 96.9625 357.611 100.054 357.611 100.054C357.611 100.054 364.077 93.5899 368.294 92.4657C368.294 92.4657 365.764 88.531 368.294 85.1583C370.825 81.7857 374.198 77.57 370.262 74.4784C366.326 71.6679 363.515 75.0405 362.39 71.9489C361.266 68.8574 359.579 51.7132 347.771 51.7132C335.963 51.7132 335.682 60.1448 330.34 59.0206C324.999 57.6153 324.436 49.1838 318.813 51.7132C313.191 54.2427 317.689 63.5174 313.191 63.2363C308.13 62.6742 310.098 60.1448 304.756 59.0206Z" fill="#3B4B75"/>
<path d="M357.331 118.884C357.05 116.355 361.548 110.172 360.423 109.048C359.299 107.923 355.363 111.015 353.676 112.982C351.989 114.669 349.74 120.009 344.961 120.852C340.181 121.695 335.402 122.538 332.59 122.819C329.779 123.381 326.686 123.943 326.686 123.943C326.686 123.943 324.437 127.316 319.658 127.316C314.878 127.316 314.035 124.786 314.035 123.662C314.035 122.538 314.035 122.538 314.035 122.538C314.035 122.538 307.569 121.976 303.633 118.322C299.697 114.669 295.48 110.453 295.761 107.642C295.761 107.642 293.23 114.388 293.512 119.446C293.793 124.505 293.793 128.44 293.512 131.251C293.23 134.061 291.825 139.963 293.512 142.212C295.198 144.179 295.48 146.989 295.761 150.081C296.042 153.172 305.882 158.794 313.473 160.48C321.345 162.447 320.501 163.29 324.999 163.571C329.779 163.852 331.185 161.604 334.558 160.48C337.932 159.356 342.43 157.95 346.647 154.578C350.864 151.205 354.519 144.46 353.676 138.558C352.832 132.656 357.331 130.407 357.331 126.754C357.331 123.662 357.612 121.695 357.331 118.884ZM320.782 140.525C319.377 140.525 318.252 139.12 318.252 137.153C318.252 135.185 319.377 133.78 320.782 133.78C322.188 133.78 323.313 135.185 323.313 137.153C323.313 139.12 322.188 140.525 320.782 140.525Z" fill="#3B4B75"/>
<path d="M318.814 129.002C316.846 129.002 315.159 128.44 314.035 127.035C312.067 125.068 312.348 122.538 312.348 122.257C312.348 121.133 313.191 120.571 314.316 120.571C315.159 120.571 316.003 121.414 316.003 122.257C316.003 122.257 316.003 123.662 316.846 124.506C317.408 125.068 318.252 125.349 319.376 125.349C323.312 125.349 325.28 123.943 325.28 123.662C325.28 122.819 326.124 121.976 326.967 121.976C328.092 121.976 328.654 122.819 328.935 123.662C328.935 124.224 328.935 125.349 327.811 126.192C325.843 128.159 322.75 129.002 318.814 129.002C319.095 129.002 318.814 129.002 318.814 129.002Z" fill="#3B4B75"/>
<path d="M389.661 280.488C386.007 280.207 382.352 279.926 378.697 279.645C374.199 279.364 369.7 279.083 364.921 278.802C364.921 278.802 375.323 266.717 372.231 241.422C369.138 216.128 362.391 212.474 360.704 212.474C359.017 212.474 357.611 212.474 357.611 212.474C357.611 212.474 357.892 207.696 362.672 207.134C367.451 206.572 369.419 208.258 373.636 207.134C377.853 206.01 391.348 205.729 398.939 234.677C406.249 263.344 389.661 280.488 389.661 280.488Z" fill="white"/>
<path d="M389.661 282.175C385.725 281.894 382.07 281.613 378.696 281.332C374.198 281.051 369.7 280.77 365.201 280.489C364.639 280.489 364.077 279.927 363.796 279.364C363.515 278.802 363.515 277.959 364.077 277.397C364.077 277.397 373.917 265.312 370.824 241.142C367.732 215.566 361.265 213.88 360.984 213.88C359.016 213.88 357.611 213.88 357.611 213.88C356.767 213.88 355.924 213.036 355.924 211.912C356.205 209.664 357.611 205.448 362.671 204.886C365.202 204.605 367.17 204.886 368.575 204.886C370.262 205.167 371.387 205.167 373.355 204.886C377.853 203.762 392.472 202.638 400.625 233.553C408.216 263.064 391.91 280.489 391.067 281.332C390.504 282.175 390.223 282.175 389.661 282.175ZM368.294 277.116C371.668 277.397 375.323 277.678 378.696 277.678C382.07 277.959 385.444 278.24 388.817 278.521C391.629 275.149 403.437 259.41 396.971 234.677C389.38 206.291 376.447 207.697 373.917 208.54C371.387 209.102 369.7 208.821 367.732 208.54C366.326 208.259 364.92 208.259 362.671 208.54C360.984 208.821 360.141 209.664 359.579 210.507C359.86 210.507 360.141 210.507 360.141 210.507C361.266 210.507 369.981 210.788 373.636 240.861C376.447 260.253 371.105 272.057 368.294 277.116Z" fill="#3B4B75"/>
<path d="M279.455 279.927C275.8 280.208 272.145 280.489 268.491 280.77C264.555 281.051 260.337 281.613 256.402 281.894C256.402 281.894 243.188 268.966 242.344 243.952C241.22 218.939 251.341 204.324 270.177 200.951C270.177 200.951 274.395 199.827 276.925 200.951C279.736 202.076 282.829 203.2 285.921 203.481C289.014 203.762 288.452 207.697 288.452 207.697C288.452 207.697 265.398 231.867 278.331 276.554L279.455 279.927Z" fill="white"/>
<path d="M256.401 283.861C255.838 283.861 255.557 283.58 255.276 283.299C254.714 282.737 241.781 269.528 240.657 244.233C239.532 218.657 249.653 203.2 269.896 199.265C270.177 199.265 274.675 197.86 277.767 199.265C280.86 200.67 283.671 201.513 286.202 201.794C287.607 202.075 288.451 202.638 289.294 203.481C290.7 205.167 290.419 207.696 290.138 207.978C290.138 208.259 289.857 208.54 289.575 208.821C289.294 209.102 267.365 232.71 280.017 275.711L281.141 279.364C281.422 279.926 281.141 280.489 280.86 280.77C280.579 281.332 280.017 281.613 279.454 281.613C275.799 281.894 272.145 282.175 268.49 282.456C264.554 283.018 260.618 283.299 256.401 283.861ZM274.113 202.075C272.707 202.075 271.301 202.357 270.739 202.638C252.184 206.291 243.187 220.063 244.312 243.952C245.155 265.031 254.995 277.397 257.244 280.208C260.899 279.927 264.835 279.364 268.49 279.083C271.301 278.802 274.394 278.521 277.205 278.24L276.643 276.835C264.273 234.677 283.39 210.507 286.764 206.853C286.764 206.291 286.764 205.729 286.483 205.448C286.483 205.448 286.202 205.167 285.921 205.167C283.109 204.886 279.735 204.043 276.362 202.357C275.518 202.357 274.956 202.075 274.113 202.075Z" fill="#3B4B75"/>
<path d="M191.738 227.651C191.738 227.651 192.019 229.337 191.738 232.71C191.457 236.082 193.143 247.043 195.393 249.573C197.642 252.102 198.766 256.037 200.734 252.946C202.702 249.573 200.734 234.958 200.734 227.651C200.734 220.344 212.823 211.069 213.948 210.507C215.073 209.945 224.912 210.507 227.443 210.507C229.973 210.507 233.347 207.134 227.443 204.605C221.539 202.075 216.197 203.481 211.699 203.2C207.201 202.918 199.891 201.513 202.983 191.958C204.389 187.742 204.951 181.559 205.233 175.657C205.795 168.068 205.514 161.323 205.514 161.323" fill="white"/>
<path d="M199.329 255.756C197.642 255.756 196.517 254.351 195.674 252.665C195.112 252.102 194.831 251.259 194.268 250.697C191.457 247.606 189.77 236.083 190.332 232.429C190.613 229.337 190.332 227.932 190.332 227.932C190.051 227.089 190.613 225.965 191.738 225.965C192.581 225.684 193.706 226.246 193.987 227.37C193.987 227.651 194.549 229.337 193.987 232.991C193.706 236.645 195.393 246.763 197.08 248.449C197.923 249.292 198.485 250.135 199.048 250.978C199.329 251.259 199.61 251.821 199.891 252.103C201.016 250.416 200.453 241.985 200.172 236.364C199.891 232.991 199.61 230.181 199.61 227.651C199.61 218.939 213.667 209.102 213.667 208.821C214.511 208.259 216.479 208.259 224.632 208.54C226.037 208.54 227.443 208.54 228.005 208.54C228.849 208.54 229.411 207.978 229.692 207.696C229.692 207.415 229.411 206.853 227.443 206.01C223.788 204.324 220.133 204.605 216.76 204.605C215.073 204.605 213.667 204.605 212.261 204.605C209.169 204.324 204.952 203.762 202.703 200.389C201.016 198.141 201.016 194.768 202.14 191.114C203.265 187.742 204.108 182.402 204.389 175.376C204.952 167.787 204.671 161.042 204.671 161.042C204.671 160.199 205.514 159.356 206.357 159.356C207.482 159.356 208.044 160.199 208.044 161.042C208.044 161.042 208.044 168.068 207.763 175.657C207.201 182.964 206.357 188.585 205.233 192.239C204.389 195.049 204.389 197.298 205.233 198.703C206.639 200.67 210.012 201.232 212.261 201.513C213.386 201.513 214.792 201.513 216.197 201.513C219.852 201.513 224.069 201.232 228.568 203.2C233.066 205.167 233.066 207.696 232.785 208.821C232.222 211.069 229.973 212.474 227.724 212.474C226.881 212.474 225.756 212.474 224.069 212.474C221.539 212.474 215.916 212.193 214.792 212.474C212.824 213.599 202.703 222.311 202.703 227.932C202.703 230.181 202.984 233.272 202.984 236.364C203.546 245.357 203.827 251.54 202.421 254.07C201.859 254.351 201.016 255.756 199.329 255.756Z" fill="#3B4B75"/>
<path d="M441.111 252.383C440.83 252.383 440.83 252.383 440.549 252.383C438.3 251.821 437.738 248.73 437.457 245.638C437.175 241.423 434.645 234.677 430.99 230.462C430.428 229.899 429.866 229.056 429.022 228.213C425.086 222.873 418.901 215.004 405.688 213.599C390.506 211.912 390.506 211.631 390.506 209.945C390.506 209.383 391.068 208.821 391.63 208.259C392.755 207.415 400.065 202.075 406.812 201.232C411.31 200.67 414.965 197.579 418.62 194.487C420.307 193.082 421.713 191.958 423.4 190.552C425.368 189.147 427.335 186.337 429.585 183.526C433.521 178.186 438.019 172.284 444.485 170.598C445.329 170.317 446.453 170.879 446.734 172.003C447.015 172.846 446.453 173.97 445.329 174.251C439.987 175.657 436.051 180.997 432.396 185.775C430.147 188.866 427.898 191.958 425.367 193.644C423.681 194.768 422.275 196.173 420.588 197.298C416.652 200.67 412.435 204.043 407.093 204.886C403.438 205.448 399.502 207.415 396.691 209.102C398.659 209.383 401.47 209.664 405.969 210.226C420.588 211.912 427.617 220.906 431.834 226.246C432.396 227.089 432.958 227.932 433.521 228.494C437.738 233.553 440.549 240.86 440.83 245.638C440.83 247.044 441.111 247.887 441.393 248.449C441.674 248.168 441.955 247.606 442.236 247.044C444.485 243.109 441.955 235.239 440.83 232.429C440.549 231.586 440.83 230.462 441.674 230.18C442.517 229.899 443.642 230.181 443.923 231.024C444.485 232.148 448.702 242.547 445.047 248.73C444.485 250.416 443.079 252.383 441.111 252.383Z" fill="#3B4B75"/>
<path d="M442.517 231.867C442.517 231.867 447.015 242.547 443.923 247.887C440.549 253.508 439.706 249.854 439.143 245.638C438.862 241.423 436.332 234.115 432.396 229.337C428.179 224.56 421.994 213.599 405.969 211.912C389.662 210.226 392.474 209.945 392.474 209.945C392.474 209.945 400.065 204.043 406.812 202.919C413.56 201.794 414.965 198.703 420.869 194.768" fill="white"/>
<path d="M441.111 252.383C440.83 252.383 440.83 252.383 440.549 252.383C438.3 251.821 437.738 248.73 437.457 245.638C437.175 241.422 434.645 234.677 430.99 230.461C430.428 229.899 429.866 229.056 429.022 228.213C425.086 222.873 418.901 215.004 405.688 213.598C390.506 211.912 390.506 211.631 390.506 209.945C390.506 209.383 391.068 208.821 391.63 208.258C392.755 207.415 400.065 202.075 406.812 201.232C411.029 200.67 412.997 198.984 415.809 196.735C416.933 195.611 418.339 194.487 420.307 193.363C421.15 192.801 422.275 193.082 422.837 193.925C423.399 194.768 423.118 195.892 422.275 196.454C420.588 197.579 419.182 198.703 418.058 199.827C414.965 202.356 412.716 204.324 407.374 205.167C403.72 205.729 399.784 207.696 396.972 209.383C398.94 209.664 401.752 209.945 406.25 210.507C420.869 212.193 427.898 221.187 432.115 226.527C432.677 227.37 433.239 228.213 433.802 228.775C438.019 233.834 440.83 241.141 441.111 245.919C441.111 247.325 441.393 248.168 441.674 248.73C441.955 248.449 442.236 247.887 442.517 247.325C444.766 243.39 442.236 235.52 441.111 232.71C440.83 231.867 441.111 230.743 441.955 230.461C442.798 230.18 443.923 230.461 444.204 231.305C444.766 232.429 448.983 242.828 445.329 249.011C444.485 250.416 443.079 252.383 441.111 252.383Z" fill="#3B4B75"/>
</svg>
