<svg width="138" height="125" viewBox="0 0 138 125" fill="none" xmlns="http://www.w3.org/2000/svg">
<path d="M101.112 80.3223V124.084H37.5176V80.3223H40.444L40.4134 80.2957L40.4479 80.3223H101.112Z" fill="#DBE6F7"/>
<path d="M101.109 78.5415H37.5488V122.303H101.109V78.5415Z" fill="url(#paint0_linear_79_352)"/>
<path d="M101.109 76.9399H37.5488V120.701H101.109V76.9399Z" fill="#4B006E"/>
<g opacity="0.5">
<path d="M41.9182 91.696V110.727C41.9182 111.359 41.4017 111.874 40.7667 111.874C40.1317 111.874 39.6152 111.359 39.6152 110.727V91.696C39.6152 91.0631 40.1317 90.5483 40.7667 90.5483C41.4055 90.5483 41.9182 91.0631 41.9182 91.696Z" fill="#4B006E"/>
</g>
<g opacity="0.5">
<path d="M41.9182 85.8738V87.7993C41.9182 88.4323 41.4017 88.947 40.7667 88.947C40.1317 88.947 39.6152 88.4323 39.6152 87.7993V85.8738C39.6152 85.2408 40.1317 84.7261 40.7667 84.7261C41.4017 84.7261 41.9182 85.2408 41.9182 85.8738Z" fill="#4B006E"/>
</g>
<path d="M63.2061 99.5891L39.3927 120.701H37.5488V119.588L61.8366 98.0525L63.2061 99.5891Z" fill="url(#paint1_linear_79_352)"/>
<path d="M101.113 119.733V120.701H99.1044L75.2871 99.5891L76.6566 98.0525L101.113 119.733Z" fill="url(#paint2_linear_79_352)"/>
<path d="M101.109 76.9399L91.48 85.4772L71.4232 103.253C70.2297 104.313 68.4279 104.313 67.2343 103.253L47.1813 85.4772L37.5488 76.9399H101.109Z" fill="url(#paint3_linear_79_352)"/>
<path d="M91.48 69.9471V85.4735L85.367 90.8917L83.2591 92.76L79.9884 95.6579L77.8806 97.5262L74.6098 100.424L72.502 102.292L71.4156 103.257C70.222 104.317 68.4202 104.317 67.2267 103.257L66.1403 102.292L64.0324 100.424L60.7617 97.5262L58.6538 95.6579L55.3831 92.76L53.2753 90.8917L47.166 85.4773V69.9471C47.1813 68.5477 48.3175 67.4153 49.7214 67.4153H88.9399C90.3439 67.4153 91.48 68.5477 91.48 69.9471Z" fill="#DBE6F7"/>
<path d="M63.23 73.4627H52.4958C52.0291 73.4627 51.6504 73.0852 51.6504 72.62V72.4408C51.6504 71.9756 52.0291 71.5981 52.4958 71.5981H63.23C63.6967 71.5981 64.0755 71.9756 64.0755 72.4408V72.62C64.0755 73.0852 63.6967 73.4627 63.23 73.4627Z" fill="#BBD4F2"/>
<path d="M87.4987 78.4616H52.5876C52.0712 78.4616 51.6504 78.0422 51.6504 77.5274C51.6504 77.0127 52.0712 76.5933 52.5876 76.5933H87.4987C88.0151 76.5933 88.4359 77.0127 88.4359 77.5274C88.4359 78.046 88.0151 78.4616 87.4987 78.4616Z" fill="#BBD4F2"/>
<path d="M87.4987 83.2277H52.5876C52.0712 83.2277 51.6504 82.8083 51.6504 82.2936C51.6504 81.7788 52.0712 81.3594 52.5876 81.3594H87.4987C88.0151 81.3594 88.4359 81.7788 88.4359 82.2936C88.4359 82.8083 88.0151 83.2277 87.4987 83.2277Z" fill="#BBD4F2"/>
<path d="M87.4987 87.9938H52.5876C52.0712 87.9938 51.6504 87.5744 51.6504 87.0597C51.6504 86.5449 52.0712 86.1255 52.5876 86.1255H87.4987C88.0151 86.1255 88.4359 86.5449 88.4359 87.0597C88.4359 87.5744 88.0151 87.9938 87.4987 87.9938Z" fill="#BBD4F2"/>
<path d="M85.3712 90.8916L83.2633 92.76H55.3949L53.2871 90.8916H85.3712Z" fill="#BBD4F2"/>
<path d="M79.9929 95.658L77.8889 97.5263H60.77L58.666 95.658H79.9929Z" fill="#BBD4F2"/>
<path d="M74.6184 100.424L72.5144 102.289H66.1488L64.041 100.424H74.6184Z" fill="#BBD4F2"/>
<path d="M77.0153 109C64.1337 109 39.0606 119.734 34 124.358C59.8399 125.101 119.801 125.776 109.909 122.871C102.318 120.642 91.3437 109 77.0153 109Z" fill="white"/>
<path d="M12.6483 68.9871C12.6149 68.9903 12.5815 68.9871 12.5481 68.974C12.1991 68.843 11.9912 68.7841 11.9912 68.7808C11.8835 68.7481 11.8278 68.6466 11.8612 68.5516C11.8983 68.4567 12.0134 68.4043 12.1211 68.437C12.1285 68.4403 12.3402 68.5025 12.7077 68.64C12.8117 68.6793 12.8599 68.7841 12.8154 68.8757C12.7857 68.9412 12.7189 68.9805 12.6483 68.9871Z" fill="#AF5DD6"/>
<path d="M23.0881 78.6785C23.2292 79.0059 23.3592 79.3431 23.4743 79.6836C23.504 79.7687 23.5968 79.8178 23.6933 79.8113C23.7044 79.8113 23.7193 79.808 23.7304 79.8047C23.8381 79.7753 23.8975 79.6738 23.8678 79.5788C23.749 79.2318 23.6153 78.888 23.4705 78.554C23.4297 78.4591 23.3146 78.4133 23.2069 78.4493C23.103 78.4787 23.051 78.5835 23.0881 78.6785Z" fill="#AF5DD6"/>
<path d="M23.7966 80.7048C23.8894 81.0453 23.9748 81.3923 24.0491 81.7426C24.0676 81.8376 24.1679 81.8998 24.2718 81.89C24.2756 81.89 24.283 81.89 24.2867 81.8867C24.3981 81.867 24.4723 81.7754 24.4501 81.6772C24.3758 81.3203 24.2904 80.9634 24.1939 80.6196C24.1679 80.5214 24.0565 80.4625 23.9451 80.4854C23.8375 80.5116 23.7706 80.6098 23.7966 80.7048Z" fill="#AF5DD6"/>
<path d="M24.4143 82.5908C24.303 82.6039 24.2213 82.6956 24.2361 82.7938C24.2584 82.9575 24.2807 83.1212 24.3029 83.2849C24.3252 83.4715 24.3438 83.6614 24.3624 83.8513C24.3698 83.9495 24.47 84.0248 24.5814 84.0183H24.5851C24.6965 84.0085 24.7782 83.9233 24.767 83.8251C24.7485 83.632 24.7299 83.4388 24.7076 83.2489C24.6891 83.0852 24.6668 82.9149 24.6408 82.7512C24.626 82.653 24.5257 82.5843 24.418 82.5941C24.418 82.5908 24.4143 82.5908 24.4143 82.5908Z" fill="#AF5DD6"/>
<path d="M22.6327 77.6961C22.6698 77.7681 22.7552 77.8107 22.8406 77.8009C22.8628 77.7976 22.8814 77.7943 22.9037 77.7845C23.0076 77.7452 23.0522 77.6372 23.0076 77.5455C22.8406 77.2181 22.6586 76.8874 22.4693 76.5698C22.4173 76.4814 22.2911 76.4487 22.1908 76.4945C22.0906 76.5404 22.0535 76.6517 22.1055 76.7401C22.2948 77.0511 22.4693 77.3753 22.6327 77.6961Z" fill="#AF5DD6"/>
<path d="M13.6359 69.4227C13.9886 69.5798 14.3413 69.7534 14.6903 69.9367C14.7311 69.9564 14.7719 69.9662 14.8165 69.9596C14.8796 69.9531 14.9353 69.9236 14.9724 69.8712C15.0318 69.7861 14.9984 69.6748 14.9019 69.6224C14.5455 69.4358 14.1853 69.259 13.8252 69.0986C13.725 69.0527 13.6024 69.0887 13.5505 69.1771C13.4948 69.2688 13.5356 69.3769 13.6359 69.4227Z" fill="#AF5DD6"/>
<path d="M16.6876 71.1252C16.7322 71.1547 16.7841 71.1645 16.8324 71.1612C16.8881 71.1547 16.9401 71.1318 16.9735 71.0925C17.0403 71.0139 17.0255 70.8993 16.9364 70.8404C16.6134 70.621 16.2755 70.4082 15.9377 70.2085C15.8448 70.1528 15.7149 70.1757 15.6518 70.2576C15.5887 70.3394 15.6147 70.454 15.7075 70.5097C16.0416 70.7029 16.372 70.9091 16.6876 71.1252Z" fill="#AF5DD6"/>
<path d="M20.1331 74.0815C20.1776 74.1306 20.2482 74.1536 20.315 74.147C20.3521 74.1437 20.3893 74.1306 20.4227 74.1077C20.5118 74.0455 20.5266 73.9309 20.4561 73.8523C20.1999 73.5708 19.9326 73.2958 19.6579 73.0273C19.5836 72.952 19.4537 72.9487 19.3683 73.0142C19.2829 73.0797 19.2792 73.1943 19.3534 73.2696C19.6207 73.5348 19.8806 73.8065 20.1331 74.0815Z" fill="#AF5DD6"/>
<path d="M18.5137 72.5099C18.5582 72.5492 18.6213 72.5656 18.677 72.5591C18.7216 72.5558 18.7661 72.5361 18.8033 72.5067C18.8812 72.4346 18.8812 72.3201 18.7996 72.2513C18.51 72.0025 18.2018 71.7536 17.8937 71.5179C17.8083 71.4524 17.6783 71.4623 17.6041 71.5376C17.5298 71.6129 17.541 71.7275 17.6263 71.7929C17.9271 72.0254 18.2278 72.2644 18.5137 72.5099Z" fill="#AF5DD6"/>
<path d="M21.5141 75.8202C21.555 75.8824 21.633 75.9118 21.7109 75.9053C21.7406 75.902 21.7703 75.8955 21.7963 75.8791C21.8928 75.8267 21.9225 75.7154 21.8631 75.6303C21.6515 75.3225 21.425 75.018 21.1911 74.7234C21.1243 74.6415 20.9981 74.6219 20.9053 74.6808C20.8124 74.7397 20.7902 74.851 20.857 74.9329C21.0835 75.221 21.3062 75.5189 21.5141 75.8202Z" fill="#AF5DD6"/>
<path d="M3.9084 63.6396L2.25781 69.1404L11.2879 71.2475L12.9385 65.7467L3.9084 63.6396Z" fill="#4B006E"/>
<path d="M8.4375 67.7396L11.0252 71.1839L11.2888 71.2461L11.3297 71.1053L8.68996 67.5923L8.4375 67.7396Z" fill="#1D38C8"/>
<path d="M2.29318 69.0166L2.25977 69.1378L2.54193 69.2032L6.72243 67.3403L6.58505 67.1013L2.29318 69.0166Z" fill="#1D38C8"/>
<path d="M12.9375 65.7459L7.36101 68.2309L3.9082 63.6375L12.9375 65.7459Z" fill="#707FFF"/>
<path d="M55.2682 43.7989C55.2682 43.969 55.118 44.1039 54.9365 44.1039H53.4665C53.2814 44.1039 53.1348 43.9658 53.1348 43.7989C53.1348 43.6287 53.2849 43.4939 53.4665 43.4939H54.9365C55.1215 43.4939 55.2682 43.6319 55.2682 43.7989Z" fill="#707FFF"/>
<path d="M57.8385 43.7989C57.8385 43.969 57.6884 44.1039 57.5068 44.1039H56.0368C55.8517 44.1039 55.7051 43.9658 55.7051 43.7989C55.7051 43.6287 55.8552 43.4939 56.0368 43.4939H57.5068C57.6919 43.4939 57.8385 43.6319 57.8385 43.7989Z" fill="#707FFF"/>
<path d="M55.8197 41.9046V43.1181C55.8197 43.2883 55.6695 43.4231 55.488 43.4231C55.3029 43.4231 55.1562 43.285 55.1562 43.1181V41.9046C55.1562 41.7344 55.3064 41.5996 55.488 41.5996C55.6695 41.5996 55.8197 41.7344 55.8197 41.9046Z" fill="#707FFF"/>
<path d="M55.8197 44.4827V45.6962C55.8197 45.8664 55.6695 46.0012 55.488 46.0012C55.3029 46.0012 55.1562 45.8632 55.1562 45.6962V44.4827C55.1562 44.3126 55.3064 44.1777 55.488 44.1777C55.6695 44.1777 55.8197 44.3126 55.8197 44.4827Z" fill="#707FFF"/>
<path d="M52.8737 54.2261C52.8737 54.3963 52.7235 54.5311 52.5419 54.5311H51.0719C50.8869 54.5311 50.7402 54.3931 50.7402 54.2261C50.7402 54.056 50.8904 53.9211 51.0719 53.9211H52.5419C52.727 53.9211 52.8737 54.056 52.8737 54.2261Z" fill="#4F60D9"/>
<path d="M55.444 54.2261C55.444 54.3963 55.2938 54.5311 55.1123 54.5311H53.6423C53.4572 54.5311 53.3105 54.3931 53.3105 54.2261C53.3105 54.056 53.4607 53.9211 53.6423 53.9211H55.1123C55.2973 53.9211 55.444 54.056 55.444 54.2261Z" fill="#4F60D9"/>
<path d="M53.4251 52.3319V53.5454C53.4251 53.7156 53.275 53.8504 53.0934 53.8504C52.9084 53.8504 52.7617 53.7123 52.7617 53.5454V52.3319C52.7617 52.1617 52.9119 52.0269 53.0934 52.0269C53.275 52.0237 53.4251 52.1617 53.4251 52.3319Z" fill="#4F60D9"/>
<path d="M53.4251 54.91V56.1235C53.4251 56.2937 53.275 56.4285 53.0934 56.4285C52.9084 56.4285 52.7617 56.2905 52.7617 56.1235V54.91C52.7617 54.7399 52.9119 54.605 53.0934 54.605C53.275 54.6018 53.4251 54.7399 53.4251 54.91Z" fill="#4F60D9"/>
<path d="M124.438 70.2428C122.982 70.2428 121.795 69.0426 121.795 67.5698C121.795 66.0969 122.982 64.8967 124.438 64.8967C125.894 64.8967 127.081 66.0969 127.081 67.5698C127.081 69.0426 125.894 70.2428 124.438 70.2428ZM124.438 65.7364C123.438 65.7364 122.625 66.5586 122.625 67.5698C122.625 68.5809 123.438 69.4031 124.438 69.4031C125.438 69.4031 126.251 68.5809 126.251 67.5698C126.251 66.5586 125.438 65.7364 124.438 65.7364Z" fill="#4B006E"/>
<path d="M130.802 75.7031C130.571 75.7031 130.389 75.514 130.389 75.2854V73.4345C130.389 73.2015 130.576 73.0168 130.802 73.0168C131.032 73.0168 131.215 73.2059 131.215 73.4345V75.2854C131.219 75.514 131.032 75.7031 130.802 75.7031Z" fill="#707FFF"/>
<path d="M130.802 78.9387C130.571 78.9387 130.389 78.7496 130.389 78.521V76.6701C130.389 76.4371 130.576 76.2524 130.802 76.2524C131.032 76.2524 131.215 76.4415 131.215 76.6701V78.521C131.219 78.7496 131.032 78.9387 130.802 78.9387Z" fill="#707FFF"/>
<path d="M133.371 76.3934H131.727C131.497 76.3934 131.314 76.2044 131.314 75.9758C131.314 75.7428 131.501 75.5581 131.727 75.5581H133.371C133.601 75.5581 133.784 75.7472 133.784 75.9758C133.784 76.2088 133.597 76.3934 133.371 76.3934Z" fill="#707FFF"/>
<path d="M129.88 76.3934H128.237C128.007 76.3934 127.824 76.2044 127.824 75.9758C127.824 75.7428 128.011 75.5581 128.237 75.5581H129.88C130.111 75.5581 130.293 75.7472 130.293 75.9758C130.293 76.2088 130.106 76.3934 129.88 76.3934Z" fill="#707FFF"/>
<path d="M116.686 72.6872C116.456 72.6872 116.273 72.4981 116.273 72.2695V70.4186C116.273 70.1856 116.46 70.001 116.686 70.001C116.917 70.001 117.099 70.19 117.099 70.4186V72.2695C117.099 72.4981 116.912 72.6872 116.686 72.6872Z" fill="#4B006E"/>
<path d="M116.686 75.9228C116.456 75.9228 116.273 75.7337 116.273 75.5051V73.6542C116.273 73.4212 116.46 73.2366 116.686 73.2366C116.917 73.2366 117.099 73.4256 117.099 73.6542V75.5051C117.099 75.7337 116.912 75.9228 116.686 75.9228Z" fill="#4B006E"/>
<path d="M119.252 73.3773H117.608C117.378 73.3773 117.195 73.1883 117.195 72.9597C117.195 72.7266 117.382 72.542 117.608 72.542H119.252C119.482 72.542 119.664 72.731 119.664 72.9597C119.664 73.1927 119.482 73.3773 119.252 73.3773Z" fill="#4B006E"/>
<path d="M115.761 73.3773H114.118C113.888 73.3773 113.705 73.1883 113.705 72.9597C113.705 72.7266 113.892 72.542 114.118 72.542H115.761C115.992 72.542 116.174 72.731 116.174 72.9597C116.174 73.1927 115.992 73.3773 115.761 73.3773Z" fill="#4B006E"/>
<path d="M43.235 49.1556C41.8195 49.1556 40.666 48.0247 40.666 46.637C40.666 45.2493 41.8195 44.1184 43.235 44.1184C44.6504 44.1184 45.8039 45.2493 45.8039 46.637C45.8082 48.0288 44.6547 49.1556 43.235 49.1556ZM43.235 44.9096C42.2632 44.9096 41.473 45.6842 41.473 46.637C41.473 47.5897 42.2632 48.3644 43.235 48.3644C44.2068 48.3644 44.9969 47.5897 44.9969 46.637C45.0011 45.6842 44.211 44.9096 43.235 44.9096Z" fill="#707FFF"/>
<path d="M13.5898 39.5273V46.6508C13.5898 47.5923 14.3391 48.3561 15.2628 48.3561H27.949L31.7809 49.755C32.1741 49.8987 32.5524 49.5055 32.4003 49.1085L30.95 45.2934V39.5273C30.95 38.5858 30.2007 37.822 29.277 37.822H15.2628C14.3391 37.822 13.5898 38.5858 13.5898 39.5273Z" fill="#4B006E"/>
<path d="M24.6113 43.2893C24.6113 43.9699 25.1529 44.5219 25.8206 44.5219C26.4883 44.5219 27.0299 43.9699 27.0299 43.2893C27.0299 42.6087 26.4883 42.0566 25.8206 42.0566C25.1529 42.0566 24.6113 42.6087 24.6113 43.2893Z" fill="#4F60D9"/>
<path d="M20.7793 43.2893C20.7793 43.9699 21.3209 44.5219 21.9886 44.5219C22.6563 44.5219 23.1978 43.9699 23.1978 43.2893C23.1978 42.6087 22.6563 42.0566 21.9886 42.0566C21.3209 42.0566 20.7793 42.6087 20.7793 43.2893Z" fill="#4F60D9"/>
<path d="M16.9473 43.2893C16.9473 43.9699 17.4888 44.5219 18.1565 44.5219C18.8242 44.5219 19.3658 43.9699 19.3658 43.2893C19.3658 42.6087 18.8242 42.0566 18.1565 42.0566C17.4888 42.0566 16.9473 42.6087 16.9473 43.2893Z" fill="#4F60D9"/>
<path d="M89.653 40.7945C89.6048 40.799 89.5566 40.7945 89.5084 40.7764C89.0051 40.5958 88.7052 40.5145 88.7052 40.51C88.5499 40.4648 88.4696 40.3248 88.5178 40.1938C88.5714 40.0628 88.7374 39.9905 88.8926 40.0357C88.9033 40.0402 89.2085 40.126 89.7386 40.3157C89.8886 40.3699 89.9581 40.5145 89.8939 40.6409C89.8511 40.7313 89.7547 40.7855 89.653 40.7945Z" fill="#AF5DD6"/>
<path d="M104.709 54.1641C104.912 54.6158 105.1 55.081 105.266 55.5508C105.308 55.6682 105.442 55.736 105.581 55.7269C105.597 55.7269 105.619 55.7224 105.635 55.7179C105.79 55.6772 105.876 55.5372 105.833 55.4062C105.662 54.9275 105.469 54.4532 105.26 53.9925C105.201 53.8615 105.035 53.7983 104.88 53.848C104.73 53.8886 104.655 54.0332 104.709 54.1641Z" fill="#AF5DD6"/>
<path d="M105.733 56.9603C105.867 57.4301 105.99 57.9088 106.097 58.3921C106.124 58.5231 106.268 58.6089 106.418 58.5954C106.423 58.5954 106.434 58.5954 106.439 58.5909C106.6 58.5638 106.707 58.4373 106.675 58.3018C106.568 57.8095 106.445 57.3171 106.306 56.8429C106.268 56.7074 106.108 56.6261 105.947 56.6577C105.792 56.6938 105.695 56.8293 105.733 56.9603Z" fill="#AF5DD6"/>
<path d="M106.621 59.5618C106.46 59.5798 106.342 59.7063 106.364 59.8418C106.396 60.0676 106.428 60.2935 106.46 60.5193C106.492 60.7768 106.519 61.0387 106.546 61.3007C106.557 61.4362 106.701 61.5401 106.862 61.5311H106.867C107.028 61.5175 107.146 61.4001 107.13 61.2646C107.103 60.9981 107.076 60.7316 107.044 60.4696C107.017 60.2438 106.985 60.0089 106.947 59.7831C106.926 59.6476 106.781 59.5527 106.626 59.5663C106.626 59.5618 106.621 59.5618 106.621 59.5618Z" fill="#AF5DD6"/>
<path d="M104.05 52.8092C104.104 52.9086 104.227 52.9673 104.35 52.9537C104.382 52.9492 104.409 52.9447 104.441 52.9311C104.591 52.8769 104.655 52.7279 104.591 52.6014C104.35 52.1497 104.087 51.6936 103.814 51.2554C103.739 51.1335 103.557 51.0883 103.413 51.1516C103.268 51.2148 103.215 51.3684 103.29 51.4903C103.563 51.9194 103.814 52.3666 104.05 52.8092Z" fill="#AF5DD6"/>
<path d="M91.0773 41.3953C91.5859 41.6121 92.0946 41.8515 92.5979 42.1045C92.6568 42.1316 92.7157 42.1451 92.78 42.1361C92.871 42.127 92.9513 42.0864 93.0049 42.0141C93.0905 41.8967 93.0423 41.7431 92.9031 41.6709C92.3891 41.4134 91.8697 41.1695 91.3503 40.9482C91.2058 40.8849 91.0291 40.9346 90.9541 41.0566C90.8738 41.1831 90.9327 41.3321 91.0773 41.3953Z" fill="#AF5DD6"/>
<path d="M95.4793 43.744C95.5436 43.7847 95.6185 43.7982 95.6881 43.7937C95.7684 43.7847 95.8434 43.7531 95.8916 43.6989C95.988 43.5905 95.9665 43.4324 95.838 43.3511C95.3722 43.0484 94.885 42.7549 94.3977 42.4793C94.2639 42.4026 94.0765 42.4342 93.9854 42.5471C93.8944 42.66 93.9319 42.8181 94.0657 42.8949C94.5476 43.1614 95.0242 43.4459 95.4793 43.744Z" fill="#AF5DD6"/>
<path d="M100.446 47.8229C100.511 47.8906 100.612 47.9222 100.709 47.9132C100.762 47.9087 100.816 47.8906 100.864 47.859C100.993 47.7732 101.014 47.6151 100.912 47.5067C100.543 47.1183 100.157 46.7389 99.7611 46.3685C99.654 46.2646 99.4666 46.2601 99.3434 46.3504C99.2203 46.4408 99.2149 46.5988 99.322 46.7027C99.7075 47.0686 100.082 47.4435 100.446 47.8229Z" fill="#AF5DD6"/>
<path d="M98.1135 45.6547C98.1777 45.7089 98.2688 45.7315 98.3491 45.7225C98.4133 45.718 98.4776 45.6909 98.5311 45.6502C98.6436 45.5508 98.6436 45.3928 98.5258 45.2979C98.1082 44.9546 97.6637 44.6114 97.2193 44.2862C97.0962 44.1958 96.9088 44.2094 96.8017 44.3133C96.6946 44.4171 96.7107 44.5752 96.8338 44.6656C97.2675 44.9862 97.7012 45.316 98.1135 45.6547Z" fill="#AF5DD6"/>
<path d="M102.439 50.2214C102.498 50.3072 102.61 50.3478 102.723 50.3388C102.766 50.3343 102.808 50.3252 102.846 50.3027C102.985 50.2304 103.028 50.0768 102.942 49.9594C102.637 49.5348 102.31 49.1148 101.973 48.7083C101.877 48.5953 101.695 48.5682 101.561 48.6495C101.427 48.7308 101.395 48.8844 101.491 48.9973C101.818 49.3948 102.139 49.8058 102.439 50.2214Z" fill="#AF5DD6"/>
<path d="M77.0484 33.4174L74.668 41.0061L87.6909 43.913L90.0714 36.3244L77.0484 33.4174Z" fill="#4B006E"/>
<path d="M83.5801 39.0739L87.3121 43.8255L87.6922 43.9113L87.7511 43.7171L83.9442 38.8706L83.5801 39.0739Z" fill="#1D38C8"/>
<path d="M74.7201 40.8354L74.6719 41.0025L75.0788 41.0929L81.1078 38.5228L80.9097 38.1931L74.7201 40.8354Z" fill="#1D38C8"/>
<path d="M90.0706 36.3233L82.0284 39.7515L77.0488 33.4146L90.0706 36.3233Z" fill="#707FFF"/>
<g clip-path="url(#clip0_79_352)">
<path d="M35.608 14.2783C35.608 14.9748 35.4374 15.6068 35.1582 16.0647C34.8829 16.529 34.5029 16.8128 34.0841 16.8128H1.52002C0.686336 16.8128 0 15.6713 0 14.2783C0 13.5818 0.170614 12.9498 0.449802 12.4919C0.725112 12.0276 1.10512 11.7438 1.5239 11.7438H3.06331C3.67209 9.39633 5.07578 7.75181 6.70825 7.75181C7.80949 7.75181 8.80216 8.4999 9.52339 9.69943C10.4812 6.99082 12.2532 5.17862 14.2773 5.17862C14.8357 5.17862 15.3708 5.3205 15.8749 5.57202C16.9335 2.25718 19.0274 0 21.4431 0C24.3436 0 26.7826 3.25679 27.5155 7.68732C28.0506 7.24233 28.6516 6.99082 29.2914 6.99082C31.0984 6.99082 32.6261 8.99648 33.1031 11.7502H34.0841C34.9217 11.7438 35.608 12.8853 35.608 14.2783Z" fill="white"/>
<path d="M9.74597 9.12086C10.7413 6.73586 12.401 5.17862 14.2773 5.17862C14.6681 5.17862 15.0474 5.2481 15.4127 5.37601C15.408 5.39062 15.4033 5.40526 15.3986 5.41991L15.8749 5.57202L16.0981 5.12461C16.0778 5.11449 16.0575 5.10452 16.0371 5.0947C17.1385 2.04238 19.1452 0 21.4431 0C24.2213 0 26.5762 2.98801 27.4138 7.13344C27.3397 7.18709 27.267 7.24363 27.1958 7.30288L27.5155 7.68732L28.0088 7.60572C27.9956 7.52598 27.9818 7.44657 27.9676 7.36751C28.3814 7.12382 28.8261 6.99082 29.2914 6.99082C31.0984 6.99082 32.6261 8.99648 33.1031 11.7502H34.0841C34.9217 11.7438 35.608 12.8853 35.608 14.2783C35.608 14.9748 35.4374 15.6068 35.1582 16.0647L9.74597 9.12086ZM9.74597 9.12086C9.81722 9.22491 9.88589 9.332 9.9519 9.44179L9.52339 9.69943L9.05199 9.53275C9.09294 9.41696 9.13547 9.30239 9.17955 9.18913C8.50064 8.29151 7.64361 7.75181 6.70825 7.75181C5.07578 7.75181 3.67209 9.39633 3.06331 11.7438H1.5239C1.10512 11.7438 0.725112 12.0276 0.449802 12.4919L9.74597 9.12086ZM34.7313 15.8044L34.7313 15.8044L34.7281 15.8097C34.5007 16.1933 34.2569 16.3128 34.0841 16.3128H1.52002C1.34961 16.3128 1.10517 16.1923 0.876085 15.8106C0.653872 15.4404 0.5 14.8986 0.5 14.2783C0.5 13.6573 0.653159 13.1188 0.876705 12.7522L0.876737 12.7522L0.879887 12.7469C1.10735 12.3633 1.35114 12.2438 1.5239 12.2438H3.06331H3.45018L3.5473 11.8693C3.83665 10.7536 4.30839 9.83294 4.87434 9.2011C5.43916 8.5705 6.07203 8.25181 6.70825 8.25181C7.5635 8.25181 8.42057 8.83559 9.09488 9.95708L9.64129 10.8658L9.99479 9.86612C10.9285 7.22544 12.5773 5.67862 14.2773 5.67862C14.7486 5.67862 15.2078 5.79792 15.6517 6.01942L16.1737 6.27989L16.3512 5.72412C17.3896 2.4724 19.3654 0.5 21.4431 0.5C22.6914 0.5 23.8945 1.19958 24.8975 2.48917C25.8996 3.77772 26.6662 5.61675 27.0222 7.76892L27.1645 8.62946L27.8352 8.07176C28.2991 7.68598 28.7905 7.49082 29.2914 7.49082C29.9954 7.49082 30.6979 7.88027 31.3035 8.64764C31.9086 9.41428 32.3828 10.5216 32.6104 11.8356L32.6822 12.2502H33.1031L34.0841 12.2503L34.088 12.2502C34.2591 12.2489 34.503 12.3675 34.7319 12.7475C34.9541 13.1164 35.108 13.6578 35.108 14.2783C35.108 14.8993 34.9549 15.4378 34.7313 15.8044Z" stroke="#4B006E" stroke-opacity="0.18"/>
<path d="M138.001 30.4655C138.001 31.162 137.83 31.7941 137.551 32.2519C137.275 32.7163 136.895 33 136.477 33H103.913C103.075 33 102.393 31.8585 102.393 30.4655C102.393 29.769 102.563 29.137 102.842 28.6791C103.118 28.2148 103.498 27.9311 103.916 27.9311H105.456C106.065 25.5836 107.468 23.9391 109.101 23.9391C110.202 23.9391 111.195 24.6872 111.916 25.8867C112.874 23.1781 114.646 21.3659 116.67 21.3659C117.228 21.3659 117.763 21.5078 118.267 21.7593C119.326 18.4444 121.42 16.1873 123.836 16.1873C126.736 16.1873 129.175 19.444 129.908 23.8746C130.443 23.4296 131.044 23.1781 131.684 23.1781C133.491 23.1781 135.019 25.1837 135.496 27.9375H136.477C137.314 27.9311 138.001 29.0725 138.001 30.4655Z" fill="white"/>
<path d="M112.139 25.3081C113.134 22.9231 114.794 21.3659 116.67 21.3659C117.061 21.3659 117.44 21.4354 117.805 21.5633C117.801 21.5779 117.796 21.5925 117.791 21.6072L118.267 21.7593L118.491 21.3119C118.47 21.3017 118.45 21.2918 118.43 21.282C119.531 18.2296 121.538 16.1873 123.836 16.1873C126.614 16.1873 128.969 19.1753 129.806 23.3207C129.732 23.3743 129.66 23.4309 129.588 23.4901L129.908 23.8746L130.401 23.793C130.388 23.7132 130.374 23.6338 130.36 23.5548C130.774 23.3111 131.219 23.1781 131.684 23.1781C133.491 23.1781 135.019 25.1837 135.496 27.9375H136.477C137.314 27.9311 138.001 29.0725 138.001 30.4655C138.001 31.162 137.83 31.7941 137.551 32.2519L112.139 25.3081ZM112.139 25.3081C112.21 25.4122 112.278 25.5193 112.344 25.629L111.916 25.8867L111.445 25.72C111.486 25.6042 111.528 25.4896 111.572 25.3764C110.893 24.4788 110.036 23.9391 109.101 23.9391C107.468 23.9391 106.065 25.5836 105.456 27.9311H103.916C103.498 27.9311 103.118 28.2148 102.842 28.6791L112.139 25.3081ZM137.124 31.9916L137.124 31.9916L137.121 31.9969C136.893 32.3806 136.649 32.5 136.477 32.5H103.913C103.74 32.5 103.496 32.379 103.267 31.9982C103.046 31.6282 102.893 31.0864 102.893 30.4655C102.893 29.8446 103.046 29.3061 103.269 28.9394L103.269 28.9395L103.272 28.9341C103.5 28.5505 103.744 28.4311 103.916 28.4311H105.456H105.843L105.94 28.0566C106.229 26.9408 106.701 26.0202 107.267 25.3884C107.832 24.7578 108.465 24.4391 109.101 24.4391C109.956 24.4391 110.813 25.0228 111.487 26.1443L112.034 27.0531L112.387 26.0534C113.321 23.4127 114.97 21.8659 116.67 21.8659C117.141 21.8659 117.6 21.9852 118.044 22.2067L118.566 22.4671L118.744 21.9114C119.782 18.6597 121.758 16.6873 123.836 16.6873C125.084 16.6873 126.287 17.3868 127.29 18.6764C128.292 19.965 129.059 21.804 129.415 23.9562L129.557 24.8167L130.228 24.259C130.692 23.8732 131.183 23.6781 131.684 23.6781C132.388 23.6781 133.09 24.0675 133.696 24.8349C134.301 25.6015 134.775 26.7088 135.003 28.0228L135.075 28.4375H135.496L136.477 28.4375L136.481 28.4375C136.652 28.4362 136.896 28.5547 137.124 28.9347C137.347 29.3037 137.501 29.8451 137.501 30.4655C137.501 31.0865 137.347 31.625 137.124 31.9916Z" stroke="#4B006E" stroke-opacity="0.18"/>
<path d="M100.817 14.2783C100.817 14.9748 100.646 15.6068 100.367 16.0647C100.092 16.529 99.7119 16.8128 99.2931 16.8128H66.7329C65.8954 16.8128 65.2129 15.6713 65.2129 14.2783C65.2129 13.5818 65.3835 12.9498 65.6627 12.4919C65.938 12.0276 66.318 11.7438 66.7368 11.7438H68.2762C68.885 9.39633 70.2887 7.75181 71.9211 7.75181C73.0224 7.75181 74.0151 8.4999 74.7363 9.69943C75.6941 6.99082 77.4661 5.17862 79.4902 5.17862C80.0486 5.17862 80.5837 5.3205 81.0878 5.57202C82.1464 2.25718 84.2403 0 86.6522 0C89.5526 0 91.9916 3.25679 92.7245 7.68732C93.2596 7.24233 93.8606 6.99082 94.5004 6.99082C96.3074 6.99082 97.8352 8.99648 98.3121 11.7502H99.2931C100.135 11.7438 100.817 12.8853 100.817 14.2783Z" fill="white"/>
<path d="M74.9589 9.12086C75.9542 6.73586 77.6139 5.17862 79.4902 5.17862C79.881 5.17862 80.2603 5.2481 80.6256 5.37601C80.6209 5.39062 80.6162 5.40526 80.6115 5.41991L81.0878 5.57202L81.311 5.12461C81.2907 5.11449 81.2704 5.10452 81.25 5.0947C82.3514 2.04238 84.3579 0 86.6522 0C89.4303 0 91.7852 2.98801 92.6228 7.13344C92.5487 7.18709 92.476 7.24363 92.4048 7.30288L92.7245 7.68732L93.2178 7.60572C93.2046 7.52598 93.1909 7.44657 93.1766 7.36751C93.5904 7.12382 94.0352 6.99082 94.5004 6.99082C96.3074 6.99082 97.8352 8.99648 98.3121 11.7502H99.2931C100.135 11.7438 100.817 12.8853 100.817 14.2783C100.817 14.9748 100.646 15.6068 100.367 16.0647C100.092 16.529 99.7119 16.8128 99.2931 16.8128H66.7329C65.8954 16.8128 65.2129 15.6713 65.2129 14.2783C65.2129 13.5818 65.3835 12.9498 65.6627 12.4919L74.9589 9.12086ZM74.9589 9.12086C75.0301 9.22491 75.0988 9.332 75.1648 9.44179L74.7363 9.69943L74.2649 9.53275C74.3058 9.41696 74.3484 9.30239 74.3924 9.18913C73.7135 8.29151 72.8565 7.75181 71.9211 7.75181C70.2887 7.75181 68.885 9.39633 68.2762 11.7438L74.9589 9.12086ZM99.9403 15.8044L99.9403 15.8044L99.9371 15.8097C99.7097 16.1933 99.4659 16.3128 99.2931 16.3128H66.7329C66.5602 16.3128 66.3159 16.1918 66.0877 15.8109C65.866 15.4409 65.7129 14.8992 65.7129 14.2783C65.7129 13.6573 65.8661 13.1188 66.0896 12.7522L66.0896 12.7522L66.0928 12.7469C66.3202 12.3633 66.564 12.2438 66.7368 12.2438H68.2762H68.6631L68.7602 11.8693C69.0495 10.7536 69.5213 9.83294 70.0872 9.2011C70.6521 8.5705 71.2849 8.25181 71.9211 8.25181C72.7764 8.25181 73.6335 8.83559 74.3078 9.95708L74.8542 10.8658L75.2077 9.86612C76.1414 7.22544 77.7902 5.67862 79.4902 5.67862C79.9615 5.67862 80.4206 5.79792 80.8646 6.01942L81.3866 6.27989L81.5641 5.72412C82.6026 2.47216 84.5785 0.5 86.6522 0.5C87.9004 0.5 89.1035 1.19958 90.1065 2.48917C91.1086 3.77772 91.8752 5.61675 92.2312 7.76892L92.3735 8.62946L93.0442 8.07176C93.5081 7.68598 93.9995 7.49082 94.5004 7.49082C95.2045 7.49082 95.9069 7.88027 96.5125 8.64764C97.1176 9.41428 97.5919 10.5216 97.8194 11.8356L97.8913 12.2502H98.3121L99.2931 12.2503L99.297 12.2502C99.4705 12.2489 99.7141 12.3679 99.9421 12.7471C100.164 13.1159 100.317 13.6573 100.317 14.2783C100.317 14.8993 100.164 15.4378 99.9403 15.8044Z" stroke="#4B006E" stroke-opacity="0.18"/>
</g>
<defs>
<linearGradient id="paint0_linear_79_352" x1="69.3288" y1="78.5415" x2="69.3288" y2="122.303" gradientUnits="userSpaceOnUse">
<stop stop-color="white"/>
<stop offset="1" stop-color="#CAA0DE" stop-opacity="0"/>
</linearGradient>
<linearGradient id="paint1_linear_79_352" x1="50.3775" y1="98.0525" x2="50.3775" y2="120.701" gradientUnits="userSpaceOnUse">
<stop stop-color="white"/>
<stop offset="1" stop-color="#CAA0DE" stop-opacity="0"/>
</linearGradient>
<linearGradient id="paint2_linear_79_352" x1="88.1999" y1="98.0525" x2="88.1999" y2="120.701" gradientUnits="userSpaceOnUse">
<stop stop-color="white"/>
<stop offset="1" stop-color="#CAA0DE" stop-opacity="0"/>
</linearGradient>
<linearGradient id="paint3_linear_79_352" x1="69.3288" y1="76.9399" x2="69.3288" y2="104.048" gradientUnits="userSpaceOnUse">
<stop stop-color="white"/>
<stop offset="1" stop-color="#CAA0DE" stop-opacity="0"/>
</linearGradient>
<clipPath id="clip0_79_352">
<rect width="138" height="33" fill="white"/>
</clipPath>
</defs>
</svg>
